<svg xmlns="http://www.w3.org/2000/svg" viewBox="0 0 14.31 18"><defs><style>.cls-1{fill:#fff;}</style></defs><title>icon pool</title><g id="Layer_3" data-name="Layer 3"><path class="cls-1" d="M14.85,9.68h-6c-.43.17-4.58,1.93-4.11,8.24,0,0,1,3.29,6.88,3.07l.24,0,.23,0c5.85.22,6.89-3.07,6.89-3.07C19.43,11.61,15.28,9.85,14.85,9.68Zm-2.7,9.1v1h-.74v-1a4.86,4.86,0,0,1-1.61-.53l.27-.74a4.25,4.25,0,0,0,1.68.47,1.17,1.17,0,0,0,1.17-1.28,1.15,1.15,0,0,0-.81-1S10.33,15.3,10,14.41a1.78,1.78,0,0,1,.26-1.81,2.41,2.41,0,0,1,1.18-.72v-1h.74V12s1.11,0,1.45.41l-.24.71s-1.7-.89-2.35,0c0,0-.79,1.11,1.06,1.68S14,16.64,13.87,17A1.74,1.74,0,0,1,12.15,18.78Z" transform="translate(-4.69 -3)"/><rect class="cls-1" x="3.54" y="4.89" width="7.22" height="1.28"/><path class="cls-1" d="M8.67,7.39H15s3.69-2.3,1.81-4.09a1.83,1.83,0,0,0-1.89.61s-.67,1.44-1.46.45c0,0-1.32-2.73-4.14-.45,0,0-.45,1-1.09.83,0,0-1.92-.7-1.77.65C6.41,5.39,6.52,6.6,8.67,7.39Z" transform="translate(-4.69 -3)"/></g></svg>