<svg width="43" height="49" viewBox="0 0 43 49" fill="none" xmlns="http://www.w3.org/2000/svg">
<path d="M26.8749 0C14.6566 6.01672 16.1249 22.9687 16.1249 22.9687C16.1249 22.9687 10.75 21.4375 10.75 14.5469C4.33729 17.7249 0 23.8332 0 30.625C0 40.7732 9.62586 49 21.5 49C33.3741 49 43 40.7732 43 30.625C42.9999 15.6953 26.8749 12.6328 26.8749 0V0ZM23.3885 42.6685C19.0682 43.5891 14.6924 41.3422 13.615 37.6496C12.5379 33.9572 15.167 30.2172 19.4876 29.2966C29.9182 27.074 31.2255 22.0609 31.2255 22.0609C31.2255 22.0609 36.4269 39.8901 23.3885 42.6685Z" fill="url(#paint0_linear_35_165)"/>
<defs>
<linearGradient id="paint0_linear_35_165" x1="37.625" y1="-2.09007e-06" x2="0.17946" y2="44.3061" gradientUnits="userSpaceOnUse">
<stop stop-color="#E250E5"/>
<stop offset="1" stop-color="#4B50E6"/>
</linearGradient>
</defs>
</svg>
