<?xml version="1.0" encoding="UTF-8"?>
<svg width="22px" height="22px" viewBox="0 0 22 22" version="1.1" xmlns="http://www.w3.org/2000/svg" xmlns:xlink="http://www.w3.org/1999/xlink">
    <title>Blind Box_icon</title>
    <defs>
        <rect id="path-1" x="0" y="0" width="22" height="22"></rect>
    </defs>
    <g id="Blind-Box_icon" stroke="none" stroke-width="1" fill="none" fill-rule="evenodd">
        <g>
            <mask id="mask-2" fill="white">
                <use xlink:href="#path-1"></use>
            </mask>
            <use id="Mask" fill="#000000" fill-rule="nonzero" opacity="0" xlink:href="#path-1"></use>
            <path d="M4.00000014,7.81114586 L10.4531251,10.5848958 L10.4531251,18.6917706 L4.77962526,16.1730832 C4.30534668,15.9623788 3.99976144,15.491997 4.00000014,14.9730207 L4.00000014,7.81114586 Z M18,7.64358336 L18,14.9730207 C18.0000658,15.4918384 17.6945085,15.9620057 17.220375,16.1726457 L11.7656251,18.5946456 L11.7656251,10.5162083 L18,7.64314586 L18,7.64358336 Z M11.5328751,3.42127094 L17.220375,5.94695838 C17.418125,6.03445839 17.5865625,6.16789587 17.715625,6.33064589 L11.0555626,9.41502083 L4.19118776,6.46452089 C4.32681275,6.24052088 4.53025025,6.05764589 4.77962526,5.94695838 L10.4671251,3.42127094 C10.8063884,3.27054883 11.1936119,3.27054883 11.5328751,3.42127094 L11.5328751,3.42127094 Z" id="fill" fill="#431216" fill-rule="nonzero" mask="url(#mask-2)"></path>
        </g>
    </g>
</svg>