<svg width="57" height="57" viewBox="0 0 57 57" fill="none" xmlns="http://www.w3.org/2000/svg">
<rect x="0.0957031" y="0.361694" width="56.0426" height="56.0426" rx="18" fill="#672ED4"/>
<path d="M42.7426 18.0464L38.303 38.9836C37.9678 40.461 37.0946 40.8288 35.8536 40.1331L29.0885 35.1482L25.8248 38.2879C25.4633 38.6494 25.1617 38.951 24.465 38.951L24.9515 32.062L37.4886 20.7333C38.034 20.2478 37.3699 19.9778 36.6417 20.4643L21.1424 30.2241L14.4698 28.1351C13.0187 27.6822 12.9924 26.684 14.7725 25.9873L40.8711 15.9322C42.0795 15.4793 43.1366 16.2012 42.7426 18.0475V18.0464Z" fill="white"/>
<g opacity="0.4">
<path d="M41.809 20.8485L37.3694 41.7857C37.0342 43.2631 36.161 43.6309 34.92 42.9353L28.1549 37.9503L24.8912 41.0901C24.5297 41.4515 24.2281 41.7531 23.5314 41.7531L24.0179 34.8641L36.555 23.5354C37.1004 23.05 36.4363 22.7799 35.7081 23.2664L20.2088 33.0262L13.5362 30.9373C12.0851 30.4844 12.0588 29.4861 13.8389 28.7894L39.9375 18.7343C41.1459 18.2814 42.2031 19.0033 41.809 20.8496V20.8485Z" fill="white"/>
</g>
</svg>
