<svg width="20" height="20" viewBox="0 0 20 20" fill="none" xmlns="http://www.w3.org/2000/svg">
<path d="M0.351562 10.5062C0.35267 15.2187 3.7585 19.2312 8.38429 19.9698V13.2747H5.96885V10.5062H8.38715V8.39875C8.27904 7.40013 8.61805 6.40488 9.31223 5.68291C10.0064 4.96095 10.9838 4.5871 11.9794 4.66277C12.6939 4.67438 13.4067 4.73841 14.112 4.85436V7.20994H12.9086C12.4943 7.15535 12.0778 7.29302 11.7763 7.58418C11.4749 7.87534 11.3213 8.28848 11.3586 8.70721V10.5062H13.9968L13.575 13.2756H11.3586V19.9698C16.3613 19.1743 19.8694 14.5773 19.3413 9.50908C18.8133 4.44088 14.4341 0.675735 9.37619 0.941325C4.31829 1.20691 0.352367 5.41026 0.351562 10.5062Z" fill="white"/>
</svg>
