<svg width="19" height="22" viewBox="0 0 19 22" fill="none" xmlns="http://www.w3.org/2000/svg">
<path d="M11.875 0C6.47618 2.70138 7.12498 10.3125 7.12498 10.3125C7.12498 10.3125 4.75 9.62498 4.75 6.53126C1.91648 7.95811 0 10.7006 0 13.75C0 18.3063 4.25329 22 9.5 22C14.7467 22 19 18.3063 19 13.75C18.9999 7.04688 11.875 5.67187 11.875 0ZM10.3345 19.1573C8.42547 19.5706 6.492 18.5618 6.01595 16.9039C5.54 15.2461 6.70169 13.5669 8.61078 13.1536C13.2197 12.1557 13.7973 9.90491 13.7973 9.90491C13.7973 9.90491 16.0956 17.9099 10.3345 19.1573Z" fill="url(#paint0_linear_84_2086)"/>
<defs>
<linearGradient id="paint0_linear_84_2086" x1="16.625" y1="-9.38401e-07" x2="-0.230032" y2="19.6269" gradientUnits="userSpaceOnUse">
<stop stop-color="#E250E5"/>
<stop offset="1" stop-color="#4B50E6"/>
</linearGradient>
</defs>
</svg>
