<svg width="57" height="57" viewBox="0 0 57 57" fill="none" xmlns="http://www.w3.org/2000/svg">
<rect x="0.606445" y="0.361694" width="56.0426" height="56.0426" rx="18" fill="#672ED4"/>
<path d="M16.8542 17.4481C16.8542 17.2251 16.9428 17.0113 17.1004 16.8536C17.2581 16.696 17.4719 16.6074 17.6949 16.6074H18.4313C19.6535 16.6074 20.3563 17.4027 20.7632 18.1962C21.0406 18.7393 21.2407 19.4017 21.4071 19.9767H38.7159C38.9756 19.9768 39.2319 20.0371 39.4645 20.1528C39.697 20.2686 39.8996 20.4366 40.0563 20.6438C40.213 20.851 40.3196 21.0917 40.3676 21.347C40.4157 21.6023 40.4039 21.8653 40.3332 22.1153L37.8181 30.984C37.618 31.6876 37.1939 32.3068 36.6102 32.7477C36.0264 33.1885 35.3148 33.427 34.5833 33.4269H26.0441C25.3065 33.4272 24.5892 33.1849 24.0029 32.7374C23.4165 32.2898 22.9936 31.6619 22.7992 30.9504L21.7198 26.991C21.7136 26.9732 21.708 26.9553 21.703 26.9372L19.9696 21.0578L19.8015 20.4912C19.6334 19.9095 19.4854 19.395 19.2635 18.9629C18.9962 18.4417 18.7507 18.2904 18.4296 18.2904H17.6932C17.4702 18.2904 17.2564 18.2018 17.0988 18.0442C16.9411 17.8865 16.8525 17.6727 16.8525 17.4497L16.8542 17.4481Z" fill="white"/>
<path opacity="0.4" d="M26.1059 40.152C26.7748 40.152 27.4162 39.8863 27.8892 39.4133C28.3621 38.9404 28.6278 38.2989 28.6278 37.6301C28.6278 36.9612 28.3621 36.3198 27.8892 35.8468C27.4162 35.3739 26.7748 35.1082 26.1059 35.1082C25.437 35.1082 24.7956 35.3739 24.3226 35.8468C23.8497 36.3198 23.584 36.9612 23.584 37.6301C23.584 38.2989 23.8497 38.9404 24.3226 39.4133C24.7956 39.8863 25.437 40.152 26.1059 40.152Z" fill="white"/>
<path opacity="0.4" d="M34.5121 40.152C35.181 40.152 35.8225 39.8863 36.2954 39.4133C36.7684 38.9404 37.0341 38.2989 37.0341 37.6301C37.0341 36.9612 36.7684 36.3198 36.2954 35.8468C35.8225 35.3739 35.181 35.1082 34.5121 35.1082C33.8433 35.1082 33.2018 35.3739 32.7289 35.8468C32.2559 36.3198 31.9902 36.9612 31.9902 37.6301C31.9902 38.2989 32.2559 38.9404 32.7289 39.4133C33.2018 39.8863 33.8433 40.152 34.5121 40.152Z" fill="white"/>
</svg>
