<svg width="18" height="19" viewBox="0 0 18 19" fill="none" xmlns="http://www.w3.org/2000/svg">
<path d="M9.03954 7.88246V11.1942H13.7419C13.3042 13.2987 11.4722 14.5079 9.03954 14.5079C6.2061 14.4698 3.92962 12.2126 3.92962 9.44142C3.92962 6.67021 6.2061 4.41308 9.03954 4.37494C10.2173 4.37357 11.3588 4.77327 12.268 5.50541L14.8194 3.01032C11.8927 0.494187 7.61863 0.170561 4.33086 2.21616C1.04309 4.26176 -0.468182 8.18496 0.622255 11.8435C1.71269 15.5021 5.14278 18.0168 9.03954 18.0145C13.423 18.0145 17.409 14.8965 17.409 9.44094C17.4022 8.91566 17.3364 8.39271 17.2127 7.88151L9.03954 7.88246Z" fill="white"/>
</svg>
