<svg width="24" height="18" viewBox="0 0 24 18" fill="none" xmlns="http://www.w3.org/2000/svg">
<g clip-path="url(#clip0_5_10665)">
<path d="M0.888107 13.1426C0.857255 13.2738 0.897184 13.4088 0.999218 13.5179C1.10121 13.627 1.25699 13.7013 1.43217 13.7244L4.40901 14.1175L2.53381 6.15369L0.888107 13.1426Z" fill="white"/>
<path d="M4.46357 0.865265C4.28798 0.841393 4.1068 0.870857 3.96028 0.947196C3.8138 1.02357 3.71396 1.14052 3.68297 1.27217L2.97168 4.29293L16.505 2.50599L4.46357 0.865265Z" fill="white"/>
<path d="M23.7607 15.3175L20.9656 3.44704C20.9013 3.1739 20.5535 2.99162 20.1886 3.03967L4.33658 5.13274C3.97182 5.18088 3.72822 5.44137 3.79252 5.71452L6.58765 17.585C6.61854 17.7162 6.71776 17.8328 6.86348 17.9092C6.977 17.9687 7.11145 18 7.24819 18C7.28695 18 7.32594 17.9975 7.36462 17.9924L23.2167 15.8993C23.3918 15.8762 23.5476 15.8019 23.6496 15.6928C23.7516 15.5837 23.7916 15.4487 23.7607 15.3175ZM7.36623 9.32252C7.30193 9.04938 7.54553 8.78888 7.91029 8.74074L18.4784 7.34534C18.8434 7.29719 19.191 7.47957 19.2553 7.75271C19.3196 8.02586 19.076 8.28635 18.7113 8.3345L8.1432 9.72993C8.10381 9.73512 8.0646 9.73764 8.02596 9.73764C7.70658 9.73764 7.42359 9.56621 7.36623 9.32252ZM16.1203 12.7565L9.07492 13.6868C9.03553 13.6919 8.99632 13.6945 8.95769 13.6945C8.6383 13.6945 8.35532 13.523 8.29795 13.2793C8.23365 13.0062 8.47725 12.7457 8.84202 12.6976L15.8874 11.7673C16.2524 11.7191 16.6 11.9015 16.6643 12.1747C16.7286 12.4478 16.485 12.7083 16.1203 12.7565ZM19.1771 10.3129L8.60902 11.7083C8.56963 11.7135 8.53041 11.716 8.49178 11.716C8.1724 11.716 7.88941 11.5446 7.83204 11.3009C7.76775 11.0278 8.01134 10.7673 8.37611 10.7191L18.9442 9.32373C19.3092 9.27558 19.6568 9.45796 19.7212 9.73111C19.7854 10.0043 19.5419 10.2648 19.1771 10.3129Z" fill="white"/>
</g>
<defs>
<clipPath id="clip0_5_10665">
<rect x="0.87793" y="0.857178" width="22.8929" height="17.1429" rx="8.57143" fill="white"/>
</clipPath>
</defs>
</svg>
