<svg width="57" height="57" viewBox="0 0 57 57" fill="none" xmlns="http://www.w3.org/2000/svg">
<rect x="0.350586" y="0.361694" width="56.0426" height="56.0426" rx="18" fill="#672ED4"/>
<rect opacity="0.4" x="26.6084" y="23.9723" width="11.468" height="12.3501" fill="white"/>
<path d="M38.9587 20.4436H28.3729L26.5071 18.5778C26.0043 18.075 25.3295 17.7971 24.6282 17.7971H17.7871C16.3183 17.7971 15.1539 18.9748 15.1539 20.4436L15.1406 36.3223C15.1406 37.7911 16.3183 38.9688 17.7871 38.9688H38.9587C40.4143 38.9688 41.6052 37.7778 41.6052 36.3223V23.09C41.6052 21.6345 40.4143 20.4436 38.9587 20.4436ZM36.3123 31.0294H33.6658V33.6758C33.6658 34.4036 33.0704 34.9991 32.3426 34.9991C31.6148 34.9991 31.0194 34.4036 31.0194 33.6758V31.0294H28.3729C27.6451 31.0294 27.0497 30.4339 27.0497 29.7062C27.0497 28.9784 27.6451 28.3829 28.3729 28.3829H31.0194V25.7365C31.0194 25.0087 31.6148 24.4133 32.3426 24.4133C33.0704 24.4133 33.6658 25.0087 33.6658 25.7365V28.3829H36.3123C37.04 28.3829 37.6355 28.9784 37.6355 29.7062C37.6355 30.4339 37.04 31.0294 36.3123 31.0294Z" fill="white"/>
</svg>
