<svg width="17" height="20" viewBox="0 0 17 20" fill="none" xmlns="http://www.w3.org/2000/svg">
<path d="M0.958909 0.225369C1.26761 0.0028708 1.67915 -0.0144452 2.00544 0.181334L16.2867 8.75008C16.5735 8.92215 16.7489 9.23206 16.7489 9.56649C16.7489 9.90092 16.5735 10.2108 16.2867 10.3829L2.00544 18.9516C1.67915 19.1474 1.26761 19.1301 0.958909 18.9076C0.650209 18.6851 0.503643 18.3002 0.58619 17.9287L2.23289 10.5186H7.22806C7.75388 10.5186 8.18014 10.0923 8.18014 9.56649C8.18014 9.04067 7.75388 8.6144 7.22806 8.6144L2.23289 8.6144L0.58619 1.20428C0.503643 0.832809 0.650209 0.447867 0.958909 0.225369Z" fill="white"/>
</svg>
