<svg width="20" height="17" viewBox="0 0 20 17" fill="none" xmlns="http://www.w3.org/2000/svg">
<path d="M17.6092 2.90513C18.4253 2.39464 19.0358 1.59082 19.327 0.643748C18.5602 1.11984 17.7212 1.45521 16.8464 1.63536C15.6335 0.292756 13.7118 -0.0339736 12.1551 0.837743C10.5984 1.70946 9.79203 3.56381 10.1866 5.36464C7.04575 5.19963 4.11946 3.64709 2.13594 1.09336C1.10079 2.96173 1.62977 5.35014 3.34482 6.55153C2.72464 6.53066 2.11822 6.35496 1.57611 6.03905C1.57611 6.0562 1.57611 6.07334 1.57611 6.09049C1.57647 8.03672 2.88728 9.71315 4.71027 10.0989C4.13502 10.2626 3.53162 10.2867 2.94611 10.1694C3.45879 11.8337 4.9247 12.974 6.59551 13.008C5.2117 14.1445 3.50274 14.7609 1.7436 14.7578C1.4318 14.7583 1.12024 14.7395 0.810547 14.7016C2.59691 15.9028 4.67602 16.5404 6.79941 16.5382C9.75357 16.5594 12.5926 15.3407 14.6815 13.1547C16.7703 10.9687 17.9347 7.99775 17.9142 4.90646C17.9142 4.72928 17.9102 4.55306 17.9023 4.37779C18.6674 3.7992 19.3277 3.08245 19.8522 2.2612C19.1395 2.59179 18.3834 2.80884 17.6092 2.90513Z" fill="white"/>
</svg>
