<svg width="31" height="28" viewBox="0 0 31 28" fill="none" xmlns="http://www.w3.org/2000/svg">
<path fill-rule="evenodd" clip-rule="evenodd" d="M23.9133 8.5727H30.0837C30.0837 3.47689 27.1151 0.5 22.0855 0.5H8.91514C3.88551 0.5 0.916992 3.47689 0.916992 8.5077V19.4923C0.916992 24.5231 3.88551 27.5 8.91514 27.5H22.0855C27.1151 27.5 30.0837 24.5231 30.0837 19.4923V19.0243H23.9133C21.0496 19.0243 18.7281 16.6963 18.7281 13.8245C18.7281 10.9527 21.0496 8.6247 23.9133 8.6247V8.5727ZM23.9133 10.8086H28.9948C29.5962 10.8086 30.0837 11.2975 30.0837 11.9006V15.6964C30.0767 16.2966 29.5932 16.7814 28.9948 16.7884H24.03C22.5802 16.808 21.3125 15.8126 20.9837 14.3965C20.819 13.5174 21.0502 12.6103 21.6152 11.9183C22.1803 11.2263 23.0215 10.8201 23.9133 10.8086ZM24.1337 14.7995H24.6133C25.229 14.7995 25.7281 14.2989 25.7281 13.6815C25.7281 13.0641 25.229 12.5636 24.6133 12.5636H24.1337C23.8392 12.5601 23.5556 12.675 23.3461 12.8826C23.1367 13.0902 23.0188 13.3732 23.0189 13.6685C23.0188 14.2881 23.5159 14.7923 24.1337 14.7995ZM7.82624 8.5727H16.0577C16.6734 8.5727 17.1725 8.07218 17.1725 7.45474C17.1725 6.83731 16.6734 6.33678 16.0577 6.33678H7.82624C7.21557 6.33674 6.71853 6.82939 6.71143 7.44174C6.71138 8.06131 7.20845 8.56558 7.82624 8.5727Z" fill="white"/>
</svg>
