<svg width="441" height="1409" viewBox="0 0 441 1409" fill="none" xmlns="http://www.w3.org/2000/svg">
<g filter="url(#filter0_f_203_20)">
<path d="M109.051 1055.62C115.648 1154.88 -18.454 1164.33 -86.3295 1156.65L-455.051 508.006C-192.816 159.105 -3.31447 179.78 171.861 481.545C240.134 599.157 97.4482 692.846 46.7841 773.626C-3.87989 854.406 100.805 931.542 109.051 1055.62Z" fill="url(#paint0_linear_203_20)" fill-opacity="0.2"/>
</g>
<circle cx="-40.5" cy="701.5" r="325" stroke="white" stroke-opacity="0.1"/>
<circle cx="-40.5" cy="701.5" r="239" stroke="white" stroke-opacity="0.1" stroke-dasharray="5 5"/>
<circle cx="-40.5" cy="701.5" r="167" stroke="white" stroke-opacity="0.1"/>
<circle cx="199.5" cy="477.5" r="22.5" fill="url(#paint1_linear_203_20)"/>
<circle cx="157.5" cy="835.5" r="9.5" fill="url(#paint2_linear_203_20)"/>
<defs>
<filter id="filter0_f_203_20" x="-705.051" y="0.770874" width="1145.06" height="1407.96" filterUnits="userSpaceOnUse" color-interpolation-filters="sRGB">
<feFlood flood-opacity="0" result="BackgroundImageFix"/>
<feBlend mode="normal" in="SourceGraphic" in2="BackgroundImageFix" result="shape"/>
<feGaussianBlur stdDeviation="125" result="effect1_foregroundBlur_203_20"/>
</filter>
<linearGradient id="paint0_linear_203_20" x1="78.2166" y1="1132.93" x2="-214.982" y2="275.844" gradientUnits="userSpaceOnUse">
<stop stop-color="#833EF1"/>
<stop offset="1" stop-color="#491CB5"/>
</linearGradient>
<linearGradient id="paint1_linear_203_20" x1="199.5" y1="455" x2="199.5" y2="500" gradientUnits="userSpaceOnUse">
<stop stop-color="#833EF1"/>
<stop offset="1" stop-color="#491CB5"/>
</linearGradient>
<linearGradient id="paint2_linear_203_20" x1="150" y1="827.5" x2="161" y2="843" gradientUnits="userSpaceOnUse">
<stop stop-color="#BBB1FF"/>
<stop offset="1" stop-color="#5234DE"/>
</linearGradient>
</defs>
</svg>
