<svg width="577" height="407" viewBox="0 0 577 407" fill="none" xmlns="http://www.w3.org/2000/svg">
<g opacity="0.08">
<path d="M361.46 44.3112L361.356 44L6 249.309L6.4155 250.035L6.31162 250.139L6.51937 250.243L277.113 407H279.191L265.687 399.115L296.953 381.064L328.22 399.115L314.716 406.896H316.794L329.259 399.634L341.723 406.896H343.801L330.297 399.115L361.564 381.064L392.83 399.115L379.326 406.896H381.404L393.869 399.634L406.334 406.896H408.411L394.907 399.115L426.174 381.064L457.44 399.115L443.936 407H446.014L577 331.059V329.815L555.29 342.368L524.024 324.316L555.29 306.265L577 318.818V317.573L556.329 305.642L577 293.608V292.363L555.29 304.916L524.024 286.865L555.29 268.813L577 281.366V280.121L556.329 268.191L577 256.156V254.911L555.29 267.464L524.024 249.413L555.29 231.362L577 243.915V242.67L556.329 230.739L577 218.705V217.46L555.29 230.013L524.024 211.961L555.29 193.91L577 206.463V205.218L556.329 193.287L577 181.357V180.112L555.29 192.665L524.024 174.614L555.29 156.562L577 169.115V167.87L361.667 44L361.46 44.3112ZM329.259 63.7113L360.525 81.7628L329.259 99.8142L297.992 81.7628L329.259 63.7113ZM361.46 230.428L330.193 212.376L361.46 194.325L392.726 212.376L361.46 230.428ZM393.765 212.999L425.031 231.05L393.765 249.102L362.498 231.05L393.765 212.999ZM360.421 231.05L329.155 249.102L297.888 231.05L329.155 212.999L360.421 231.05ZM329.259 211.754L297.992 193.702L329.259 175.651L360.525 193.702L329.259 211.754ZM328.22 212.376L296.953 230.428L265.687 212.376L296.953 194.325L328.22 212.376ZM295.915 231.05L264.648 249.102L233.486 231.05L264.752 212.999L295.915 231.05ZM263.61 249.724L232.447 267.776L201.181 249.724L232.447 231.673L263.61 249.724ZM264.648 250.243L295.915 268.294L264.648 286.45L233.486 268.398L264.648 250.243ZM265.687 249.724L296.953 231.673L328.22 249.724L296.953 267.776L265.687 249.724ZM329.259 250.347L360.525 268.398L329.259 286.45L297.992 268.398L329.259 250.347ZM330.297 249.724L361.564 231.673L392.83 249.724L361.564 267.776L330.297 249.724ZM393.765 250.347L425.031 268.398L393.765 286.45L362.498 268.398L393.765 250.347ZM394.803 249.724L426.07 231.673L457.336 249.724L426.07 267.776L394.803 249.724ZM426.07 230.428L394.803 212.376L426.07 194.325L457.336 212.376L426.07 230.428ZM393.765 211.754L362.498 193.702L393.765 175.651L425.031 193.702L393.765 211.754ZM361.46 193.08L330.193 175.029L361.46 156.977L392.726 175.029L361.46 193.08ZM329.259 174.406L297.992 156.355L329.259 138.303L360.525 156.355L329.259 174.406ZM328.22 175.029L296.953 193.08L265.687 175.029L296.953 156.977L328.22 175.029ZM295.915 193.702L264.648 211.754L233.486 193.702L264.752 175.651L295.915 193.702ZM263.61 212.376L232.447 230.428L201.181 212.376L232.447 194.325L263.61 212.376ZM231.408 231.05L200.142 249.102L168.876 231.05L200.142 212.999L231.408 231.05ZM199.103 249.62L167.837 267.672L136.571 249.62L167.837 231.569L199.103 249.62ZM200.142 250.243L231.408 268.294L200.142 286.346L168.876 268.294L200.142 250.243ZM232.447 268.917L263.713 286.968L232.447 305.123L201.181 287.072L232.447 268.917ZM264.648 287.591L295.915 305.642L264.648 323.797L233.486 305.746L264.648 287.591ZM265.687 287.072L296.953 269.021L328.22 287.072L296.953 305.123L265.687 287.072ZM329.259 287.591L360.525 305.642L329.259 323.694L297.992 305.642L329.259 287.591ZM330.297 287.072L361.564 269.021L392.83 287.072L361.564 305.123L330.297 287.072ZM393.765 287.591L425.031 305.642L393.765 323.694L362.498 305.642L393.765 287.591ZM394.803 287.072L426.07 269.021L457.336 287.072L426.07 305.123L394.803 287.072ZM458.271 287.591L489.537 305.642L458.271 323.694L427.005 305.642L458.271 287.591ZM458.271 286.45L427.005 268.398L458.271 250.347L489.537 268.398L458.271 286.45ZM458.271 249.102L427.005 231.05L458.271 212.999L489.537 231.05L458.271 249.102ZM458.271 211.754L427.005 193.702L458.271 175.651L489.537 193.702L458.271 211.754ZM426.07 193.08L394.803 175.029L426.07 156.977L457.336 175.029L426.07 193.08ZM393.765 174.406L362.498 156.355L393.765 138.303L425.031 156.355L393.765 174.406ZM361.46 155.836L330.193 137.785L361.46 119.733L392.726 137.785L361.46 155.836ZM329.259 137.162L297.992 119.111L329.259 101.059L360.525 119.111L329.259 137.162ZM328.22 137.785L296.953 155.836L265.687 137.681L296.953 119.733L328.22 137.785ZM295.915 156.355L264.648 174.406L233.486 156.355L264.648 138.303L295.915 156.355ZM263.61 175.029L232.447 193.08L201.181 175.029L232.447 156.977L263.61 175.029ZM231.408 193.702L200.142 211.754L168.876 193.702L200.142 175.651L231.408 193.702ZM199.103 212.376L167.837 230.428L136.571 212.376L167.837 194.325L199.103 212.376ZM166.798 230.947L135.532 248.998L104.266 230.947L135.532 212.895L166.798 230.947ZM134.597 249.62L103.331 267.672L72.0644 249.62L103.331 231.569L134.597 249.62ZM135.636 250.243L166.902 268.294L135.636 286.346L104.369 268.294L135.636 250.243ZM167.837 268.917L199.103 286.968L167.837 305.02L136.571 286.968L167.837 268.917ZM200.142 287.591L231.408 305.642L200.142 323.694L168.876 305.642L200.142 287.591ZM232.447 306.265L263.713 324.316L232.447 342.471L201.181 324.42L232.447 306.265ZM264.648 324.939L295.915 342.99L264.648 361.145L233.486 343.094L264.648 324.939ZM265.687 324.42L296.953 306.368L328.22 324.42L296.953 342.471L265.687 324.42ZM329.259 325.042L360.525 343.094L329.259 361.145L297.992 343.094L329.259 325.042ZM330.297 324.42L361.564 306.368L392.83 324.42L361.564 342.471L330.297 324.42ZM393.765 325.042L425.031 343.094L393.765 361.145L362.498 343.094L393.765 325.042ZM394.803 324.42L426.07 306.368L457.336 324.42L426.07 342.471L394.803 324.42ZM458.271 324.939L489.537 342.99L458.271 361.041L427.005 342.99L458.271 324.939ZM459.31 324.42L490.576 306.368L521.842 324.42L490.576 342.471L459.31 324.42ZM490.576 305.123L459.31 287.072L490.576 269.021L521.842 287.072L490.576 305.123ZM490.576 267.776L459.31 249.724L490.576 231.673L521.842 249.724L490.576 267.776ZM490.576 230.428L459.31 212.376L490.576 194.325L521.842 212.376L490.576 230.428ZM490.576 193.08L459.31 175.029L490.576 156.977L521.842 175.029L490.576 193.08ZM458.271 174.406L427.005 156.355L458.271 138.303L489.537 156.355L458.271 174.406ZM426.07 155.836L394.803 137.785L426.07 119.733L457.336 137.785L426.07 155.836ZM393.765 137.162L362.498 119.111L393.765 101.059L425.031 119.111L393.765 137.162ZM361.46 118.488L330.193 100.437L361.46 82.3853L392.726 100.437L361.46 118.488ZM296.953 82.3853L328.22 100.437L296.953 118.488L265.687 100.437L296.953 82.3853ZM264.648 101.059L295.915 119.111L264.648 137.162L233.486 119.111L264.648 101.059ZM232.447 119.629L263.61 137.681L232.447 155.732L201.181 137.681L232.447 119.629ZM200.142 138.303L231.408 156.355L200.142 174.406L168.876 156.355L200.142 138.303ZM167.837 156.977L199.103 175.029L167.837 193.08L136.571 175.029L167.837 156.977ZM135.636 175.547L166.902 193.599L135.636 211.65L104.369 193.599L135.636 175.547ZM103.331 194.221L134.597 212.273L103.331 230.324L72.0644 212.273L103.331 194.221ZM71.0257 212.895L102.292 230.947L71.0257 248.998L39.7593 230.947L71.0257 212.895ZM7.55812 249.517L38.8244 231.465L70.0908 249.517L38.8244 267.568L7.55812 249.517ZM39.8632 268.294L71.1295 250.243L102.396 268.294L71.1295 286.346L39.8632 268.294ZM72.0644 286.968L103.331 268.917L134.597 286.968L103.331 305.02L72.0644 286.968ZM104.369 305.642L135.636 287.591L166.902 305.642L135.636 323.694L104.369 305.642ZM136.675 324.316L167.941 306.265L199.207 324.316L167.941 342.368L136.675 324.316ZM168.876 342.99L200.142 324.939L231.408 342.99L200.142 361.041L168.876 342.99ZM201.181 361.768L232.447 343.716L263.713 361.768L232.447 379.819L201.181 361.768ZM264.752 398.493L264.856 398.7L233.486 380.442L264.752 362.39L296.019 380.442L264.752 398.493ZM265.687 361.768L296.953 343.716L328.22 361.768L296.953 379.819L265.687 361.768ZM329.259 398.493L297.992 380.442L329.259 362.39L360.525 380.442L329.259 398.493ZM330.297 361.768L361.564 343.716L392.83 361.768L361.564 379.819L330.297 361.768ZM393.765 398.493L362.498 380.442L393.765 362.39L425.031 380.442L393.765 398.493ZM426.07 379.819L394.803 361.768L426.07 343.716L457.336 361.768L426.07 379.819ZM458.063 398.597L458.167 398.389L427.005 380.338L458.271 362.286L489.537 380.338L458.063 398.597ZM490.576 379.819L459.414 361.768L490.68 343.716L521.946 361.768L490.576 379.819ZM554.044 342.99L522.777 361.041L491.511 342.99L522.777 324.939L554.044 342.99ZM554.044 305.642L522.777 323.694L491.511 305.642L522.777 287.591L554.044 305.642ZM554.044 268.294L522.777 286.346L491.511 268.294L522.777 250.243L554.044 268.294ZM554.044 230.947L522.777 248.998L491.511 230.947L522.777 212.895L554.044 230.947ZM554.044 193.702L522.777 211.754L491.511 193.702L522.777 175.651L554.044 193.702ZM554.044 156.355L522.777 174.406L491.511 156.355L522.777 138.303L554.044 156.355ZM521.739 137.681L490.472 155.732L459.206 137.681L490.472 119.629L521.739 137.681ZM489.537 119.111L458.271 137.162L427.005 119.111L458.271 101.059L489.537 119.111ZM457.232 100.437L425.966 118.488L394.7 100.437L426.07 82.3853L457.232 100.437ZM425.031 81.7628L393.765 99.8142L362.498 81.7628L393.765 63.7113L425.031 81.7628ZM361.46 81.2441L330.193 63.1926L361.46 45.1412L392.726 63.1926L361.46 81.2441Z" fill="white"/>
<path d="M305.887 381.998L303.394 380.649L308.38 377.744L310.769 379.197L305.887 381.998Z" fill="white"/>
<path d="M329.466 395.588L326.973 394.24L329.882 392.58L332.271 393.928L329.466 395.588Z" fill="white"/>
<path d="M309.834 384.28L307.341 382.931L316.378 377.64L318.871 379.093L309.834 384.28Z" fill="white"/>
<path d="M313.781 386.562L311.288 385.11L324.376 377.537L326.869 378.989L313.781 386.562Z" fill="white"/>
<path d="M317.625 388.845L315.132 387.392L321.364 383.865L323.857 385.318L317.625 388.845Z" fill="white"/>
<path d="M321.572 391.127L319.079 389.675L329.882 383.45L332.375 384.903L321.572 391.127Z" fill="white"/>
<path d="M325.519 393.41L323.026 391.957L331.128 387.289L333.621 388.741L325.519 393.41Z" fill="white"/>
<path d="M466.685 362.701L464.192 361.249L469.074 358.448L471.567 359.9L466.685 362.701Z" fill="white"/>
<path d="M490.161 376.292L487.668 374.839L490.576 373.179L493.069 374.632L490.161 376.292Z" fill="white"/>
<path d="M470.528 364.984L468.035 363.531L477.072 358.344L479.565 359.797L470.528 364.984Z" fill="white"/>
<path d="M474.476 367.266L471.983 365.814L485.175 358.24L487.668 359.693L474.476 367.266Z" fill="white"/>
<path d="M478.423 369.445L475.93 368.096L482.058 364.465L484.551 365.917L478.423 369.445Z" fill="white"/>
<path d="M482.37 371.727L479.877 370.378L490.576 364.154L493.069 365.606L482.37 371.727Z" fill="white"/>
<path d="M486.317 374.009L483.824 372.557L491.823 367.889L494.316 369.341L486.317 374.009Z" fill="white"/>
<path d="M531.087 288.939L528.594 287.487L533.58 284.686L535.969 286.138L531.087 288.939Z" fill="white"/>
<path d="M554.667 302.53L552.174 301.077L555.082 299.418L557.472 300.87L554.667 302.53Z" fill="white"/>
<path d="M535.035 291.222L532.542 289.769L541.579 284.582L544.072 286.035L535.035 291.222Z" fill="white"/>
<path d="M538.982 293.504L536.489 292.052L549.577 284.478L552.07 285.931L538.982 293.504Z" fill="white"/>
<path d="M542.825 295.786L540.436 294.334L546.565 290.807L549.058 292.155L542.825 295.786Z" fill="white"/>
<path d="M546.772 298.069L544.279 296.616L555.082 290.392L557.575 291.844L546.772 298.069Z" fill="white"/>
<path d="M550.72 300.247L548.227 298.899L556.329 294.23L558.822 295.579L550.72 300.247Z" fill="white"/>
<path d="M534.307 332.097L513.013 319.544L456.921 325.25L470.944 279.602L425.862 269.124L394.388 249.413L336.426 255.534L346.709 224.307L297.577 232.295L297.473 231.258L348.268 223.062L337.984 254.393L394.596 248.376L426.278 268.191L472.294 278.876L458.375 324.109L513.221 318.506L513.325 318.61L534.931 331.267L534.307 332.097Z" fill="white"/>
<path d="M474.06 280.744C472.606 281.574 470.321 281.574 468.97 280.744C467.516 279.914 467.516 278.565 468.97 277.839C470.424 277.009 472.71 277.009 474.06 277.839C475.514 278.565 475.514 279.914 474.06 280.744Z" fill="white"/>
<path d="M428.771 270.058C427.316 270.888 425.031 270.888 423.681 270.058C422.226 269.228 422.226 267.879 423.681 267.153C425.135 266.323 427.42 266.323 428.771 267.153C430.225 267.983 430.225 269.228 428.771 270.058Z" fill="white"/>
<path d="M396.985 250.347C395.531 251.177 393.245 251.177 391.895 250.347C390.441 249.517 390.441 248.168 391.895 247.442C393.349 246.612 395.635 246.612 396.985 247.442C398.439 248.272 398.439 249.517 396.985 250.347Z" fill="white"/>
<path d="M460.556 326.08C459.102 326.91 456.817 326.91 455.466 326.08C454.012 325.25 454.012 323.901 455.466 323.175C456.921 322.345 459.206 322.345 460.556 323.175C462.011 324.005 462.011 325.25 460.556 326.08Z" fill="white"/>
<path d="M515.61 320.581C514.156 321.411 511.87 321.411 510.52 320.581C509.066 319.751 509.066 318.403 510.52 317.676C511.974 316.846 514.26 316.846 515.61 317.676C517.064 318.403 517.064 319.751 515.61 320.581Z" fill="white"/>
<path d="M537.32 333.134C535.866 333.964 533.58 333.964 532.23 333.134C530.776 332.304 530.776 330.956 532.23 330.229C533.684 329.4 535.969 329.4 537.32 330.229C538.774 330.956 538.774 332.304 537.32 333.134Z" fill="white"/>
<path d="M339.958 256.364C338.503 257.194 336.218 257.194 334.868 256.364C333.413 255.534 333.413 254.185 334.868 253.459C336.322 252.629 338.607 252.629 339.958 253.459C341.412 254.185 341.412 255.534 339.958 256.364Z" fill="white"/>
<path d="M350.137 224.929C348.683 225.759 346.398 225.759 345.047 224.929C343.593 224.099 343.593 222.751 345.047 222.025C346.502 221.195 348.787 221.195 350.137 222.025C351.488 222.855 351.592 224.099 350.137 224.929Z" fill="white"/>
<path d="M299.758 233.125C298.304 233.955 296.019 233.955 294.668 233.125C293.214 232.295 293.214 230.947 294.668 230.22C296.122 229.39 298.408 229.39 299.758 230.22C301.108 230.947 301.108 232.295 299.758 233.125Z" fill="white"/>
<path d="M490.888 380.96L458.998 361.975L392.311 362.598L416.202 311.556L360.317 306.368L379.43 280.744L328.012 287.591L296.434 269.747L233.59 269.228V268.191L296.746 268.709L296.85 268.813L328.22 286.553L381.715 279.395L362.187 305.538L417.76 310.726L393.869 361.456L459.206 360.938L491.407 380.027L490.888 380.96Z" fill="white"/>
<path d="M419.422 312.697C417.968 313.527 415.682 313.527 414.332 312.697C412.878 311.867 412.878 310.518 414.332 309.792C415.786 308.962 418.071 308.962 419.422 309.792C420.876 310.518 420.876 311.867 419.422 312.697Z" fill="white"/>
<path d="M363.953 307.302C362.498 308.132 360.213 308.132 358.863 307.302C357.409 306.472 357.409 305.123 358.863 304.397C360.317 303.567 362.602 303.567 363.953 304.397C365.407 305.227 365.407 306.472 363.953 307.302Z" fill="white"/>
<path d="M383.066 281.47C381.611 282.3 379.326 282.3 377.976 281.47C376.522 280.64 376.522 279.291 377.976 278.565C379.43 277.735 381.715 277.735 383.066 278.565C384.52 279.395 384.52 280.64 383.066 281.47Z" fill="white"/>
<path d="M396.05 363.428C394.596 364.257 392.311 364.257 390.96 363.428C389.61 362.598 389.506 361.249 390.96 360.523C392.414 359.693 394.7 359.693 396.05 360.523C397.4 361.353 397.504 362.598 396.05 363.428Z" fill="white"/>
<path d="M461.595 363.013C460.141 363.842 457.856 363.842 456.505 363.013C455.051 362.183 455.051 360.834 456.505 360.108C457.959 359.278 460.245 359.278 461.595 360.108C463.049 360.938 463.049 362.183 461.595 363.013Z" fill="white"/>
<path d="M493.9 381.894C492.446 382.724 490.161 382.724 488.81 381.894C487.356 381.064 487.356 379.715 488.81 378.989C490.264 378.159 492.55 378.159 493.9 378.989C495.25 379.819 495.354 381.064 493.9 381.894Z" fill="white"/>
<path d="M330.92 288.524C329.466 289.354 327.181 289.354 325.831 288.524C324.376 287.694 324.376 286.346 325.831 285.62C327.285 284.79 329.57 284.79 330.92 285.62C332.271 286.346 332.375 287.694 330.92 288.524Z" fill="white"/>
<path d="M299.343 270.473C297.888 271.303 295.603 271.303 294.253 270.473C292.798 269.643 292.798 268.294 294.253 267.568C295.707 266.738 297.992 266.738 299.343 267.568C300.693 268.398 300.693 269.643 299.343 270.473Z" fill="white"/>
<path d="M235.771 270.058C234.317 270.888 232.032 270.888 230.681 270.058C229.227 269.228 229.227 267.879 230.681 267.153C232.136 266.323 234.421 266.323 235.771 267.153C237.225 267.879 237.225 269.228 235.771 270.058Z" fill="white"/>
<path d="M354.085 339.463L366.861 346.828L373.094 343.301L360.317 335.832L354.085 339.463Z" fill="white"/>
<path d="M363.641 333.964L376.522 341.33L383.377 337.388L370.497 330.022L363.641 333.964Z" fill="white"/>
<path d="M334.972 350.46L347.748 357.825L352.63 355.128L339.854 347.658L334.972 350.46Z" fill="white"/>
<path d="M328.427 354.298L341.308 361.664L343.801 360.419L330.92 353.053L328.427 354.298Z" fill="white"/>
<path d="M344.528 344.961L357.305 352.327L362.914 349.215L350.033 341.745L344.528 344.961Z" fill="white"/>
<path d="M362.706 321.619L397.504 341.641L404.048 317.78L362.706 321.619Z" fill="white"/>
</g>
<g filter="url(#filter0_f_32_3240)">
<circle cx="11.5" cy="250.5" r="5.5" fill="url(#paint0_linear_32_3240)"/>
</g>
<g filter="url(#filter1_f_32_3240)">
<circle cx="554.5" cy="192.5" r="5.5" fill="url(#paint1_linear_32_3240)"/>
</g>
<g filter="url(#filter2_f_32_3240)">
<circle cx="554.5" cy="342.5" r="5.5" fill="url(#paint2_linear_32_3240)"/>
</g>
<g filter="url(#filter3_f_32_3240)">
<circle cx="231.5" cy="342.5" r="3.5" fill="url(#paint3_linear_32_3240)"/>
</g>
<g filter="url(#filter4_f_32_3240)">
<circle cx="393.5" cy="395.5" r="5.5" fill="url(#paint4_linear_32_3240)"/>
</g>
<path d="M397 81.0149L369.998 76.7294L356.44 72.7501L383.329 77.0355L397 81.0149Z" fill="#797979"/>
<path d="M344.803 139.072L317.914 134.685L339.267 67.7505L366.156 72.0359L344.803 139.072Z" fill="url(#paint5_linear_32_3240)"/>
<path d="M354.18 68.5668L327.291 64.1793L369.659 0L396.548 4.28542L354.18 68.5668Z" fill="url(#paint6_linear_32_3240)"/>
<path d="M366.156 72.0359L339.267 67.7505L327.291 64.1793L354.18 68.5668L366.156 72.0359Z" fill="#797979"/>
<path d="M352.825 172.743L325.935 168.458L273.06 121.216L299.949 125.604L352.825 172.743Z" fill="#929292"/>
<g opacity="0.5">
<path opacity="0.5" d="M352.825 172.743L325.935 168.458L273.06 121.216L299.949 125.604L352.825 172.743Z" fill="url(#paint7_linear_32_3240)"/>
</g>
<path d="M258.824 202.129L231.935 197.742L264.474 87.0349L291.363 91.3203L258.824 202.129Z" fill="url(#paint8_linear_32_3240)"/>
<path d="M267.976 234.576L241.086 230.29L173.524 177.029L200.413 181.314L267.976 234.576Z" fill="#949494"/>
<g opacity="0.5">
<path opacity="0.5" d="M267.976 234.576L241.086 230.29L173.524 177.029L200.413 181.314L267.976 234.576Z" fill="url(#paint9_linear_32_3240)"/>
</g>
<path d="M141.889 295.082L115 290.797L165.615 145.5L192.505 149.786L141.889 295.082Z" fill="url(#paint10_linear_32_3240)"/>
<path d="M158.837 301L131.834 296.715L115 290.797L141.889 295.082L158.837 301Z" fill="url(#paint11_linear_32_3240)"/>
<path d="M396.548 4.2854L354.18 68.5668L366.156 72.0359L344.803 139.072L291.363 91.3203L258.824 202.129L192.505 149.786L141.889 295.082L158.837 301L200.413 181.314L267.976 234.576L299.949 125.604L352.824 172.743L383.329 77.0356L397 81.0149L396.548 4.2854Z" fill="url(#paint12_linear_32_3240)"/>
<g filter="url(#filter5_f_32_3240)">
<circle cx="296.5" cy="268.5" r="4.5" fill="url(#paint13_linear_32_3240)"/>
</g>
<g filter="url(#filter6_f_32_3240)">
<circle cx="285.5" cy="178.5" r="5.5" fill="url(#paint14_linear_32_3240)"/>
</g>
<path d="M409.591 287.739V301.783C409.591 306.324 437.91 310.001 472.835 310.001C507.76 310.001 536.079 306.324 536.079 301.783V287.739H409.591Z" fill="url(#paint15_linear_32_3240)"/>
<path d="M472.822 295.957C507.751 295.957 536.066 292.278 536.066 287.739C536.066 283.201 507.751 279.521 472.822 279.521C437.894 279.521 409.578 283.201 409.578 287.739C409.578 292.278 437.894 295.957 472.822 295.957Z" fill="#3D004D"/>
<path d="M472.822 296.517C441.886 296.517 409.54 293.553 409.54 287.854C409.54 287.536 409.655 286.989 409.96 286.989C410.277 286.989 410.137 287.421 410.137 287.726C410.137 291.339 435.877 295.372 472.809 295.372C509.742 295.372 535.482 291.339 535.482 287.726C535.482 287.408 535.532 287.116 535.85 287.116C536.168 287.116 536.091 287.536 536.091 287.854C536.104 293.565 503.758 296.517 472.822 296.517Z" fill="url(#paint16_linear_32_3240)"/>
<path d="M472.822 278.758C441.886 278.758 409.54 281.722 409.54 287.421C409.54 287.739 409.655 288.286 409.96 288.286C410.277 288.286 410.137 287.854 410.137 287.548C410.137 283.936 435.877 279.903 472.809 279.903C509.742 279.903 535.482 283.936 535.482 287.548C535.482 287.866 535.532 288.159 535.85 288.159C536.168 288.159 536.091 287.739 536.091 287.421C536.104 281.709 503.758 278.758 472.822 278.758Z" fill="url(#paint17_linear_32_3240)"/>
<path d="M466.851 288.197C467.474 287.765 468.134 287.345 468.833 286.925C469.532 286.505 470.447 286.124 471.552 285.793C472.657 285.449 474.055 285.182 475.719 284.966C477.383 284.75 479.467 284.635 481.957 284.622C484.396 284.61 486.696 284.686 488.843 284.851C490.977 285.017 492.87 285.271 494.509 285.602C496.135 285.933 497.457 286.352 498.486 286.836C499.502 287.332 500.112 287.892 500.303 288.528L507.417 288.604C507.938 288.604 508.395 288.655 508.777 288.731C509.17 288.808 509.361 288.909 509.374 289.037V289.622L500.214 289.533C499.896 290.258 499.07 290.907 497.762 291.504C496.453 292.102 494.776 292.624 492.743 293.056L489.415 292.586C489.122 292.535 488.868 292.484 488.678 292.408C488.487 292.331 488.398 292.255 488.386 292.179C488.386 292.064 488.64 291.937 489.161 291.797C489.681 291.657 490.253 291.466 490.901 291.263C491.549 291.047 492.184 290.792 492.807 290.512C493.429 290.22 493.849 289.876 494.065 289.469L472.454 289.253C471.882 289.673 471.247 290.08 470.548 290.487C469.837 290.894 468.909 291.25 467.74 291.581C466.572 291.899 465.123 292.166 463.395 292.369C461.655 292.573 459.47 292.675 456.84 292.688C454.858 292.7 452.927 292.624 451.047 292.459C449.154 292.293 447.476 292.064 446.015 291.746C444.554 291.428 443.347 291.034 442.407 290.563C441.467 290.092 440.946 289.558 440.832 288.948L434.975 288.884C434.454 288.884 433.997 288.846 433.59 288.757C433.184 288.68 432.98 288.579 432.98 288.439V287.854L440.997 287.93C441.353 287.307 442.077 286.772 443.182 286.314C444.288 285.856 445.647 285.449 447.248 285.093L449.929 285.462C450.742 285.577 451.148 285.716 451.148 285.869C451.148 285.958 450.983 286.06 450.64 286.174C450.297 286.302 449.903 286.442 449.433 286.62C448.976 286.785 448.531 286.989 448.099 287.218C447.667 287.446 447.337 287.714 447.121 288.006L466.851 288.197ZM447.07 288.986C447.235 289.367 447.591 289.698 448.137 289.978C448.683 290.258 449.357 290.487 450.17 290.665C450.983 290.843 451.898 290.97 452.914 291.059C453.93 291.148 454.998 291.186 456.116 291.174C457.412 291.161 458.542 291.11 459.508 291.008C460.473 290.907 461.312 290.754 462.049 290.576C462.773 290.398 463.421 290.182 463.954 289.94C464.501 289.698 464.984 289.444 465.415 289.164L447.07 288.986ZM494.115 288.464C493.95 288.07 493.556 287.726 492.947 287.434C492.337 287.141 491.549 286.9 490.609 286.696C489.656 286.492 488.551 286.353 487.293 286.251C486.035 286.149 484.638 286.111 483.113 286.111C481.766 286.124 480.585 286.174 479.619 286.289C478.641 286.403 477.803 286.556 477.078 286.747C476.367 286.938 475.744 287.167 475.249 287.421C474.741 287.675 474.283 287.955 473.851 288.248L494.115 288.464Z" fill="url(#paint18_linear_32_3240)"/>
<path d="M472.835 280.399C444.643 280.399 415.283 282.88 410.582 287.688C410.76 287.854 410.938 288.044 411.09 288.235C415.054 284.902 439.295 281.531 472.835 281.531C507.239 281.531 531.861 285.068 534.846 288.49C534.999 288.299 535.151 288.121 535.316 287.955C531.442 282.982 501.535 280.399 472.835 280.399Z" fill="#24002D"/>
<path d="M396.239 274.191V288.235C396.239 292.777 424.557 296.453 459.483 296.453C494.408 296.453 522.726 292.777 522.726 288.235V274.191H396.239Z" fill="url(#paint19_linear_32_3240)"/>
<path d="M459.483 282.409C494.411 282.409 522.726 278.73 522.726 274.191C522.726 269.653 494.411 265.974 459.483 265.974C424.554 265.974 396.239 269.653 396.239 274.191C396.239 278.73 424.554 282.409 459.483 282.409Z" fill="#3D004D"/>
<path d="M459.483 282.981C428.547 282.981 396.201 280.018 396.201 274.319C396.201 274 396.315 273.453 396.62 273.453C396.938 273.453 396.798 273.886 396.798 274.191C396.798 277.804 422.537 281.837 459.47 281.837C496.402 281.837 522.142 277.804 522.142 274.191C522.142 273.873 522.193 273.581 522.51 273.581C522.828 273.581 522.752 274 522.752 274.319C522.764 280.03 490.418 282.981 459.483 282.981Z" fill="url(#paint20_linear_32_3240)"/>
<path d="M459.483 265.21C428.547 265.21 396.201 268.174 396.201 273.873C396.201 274.191 396.315 274.738 396.62 274.738C396.938 274.738 396.798 274.306 396.798 274.001C396.798 270.388 422.537 266.355 459.47 266.355C496.402 266.355 522.142 270.388 522.142 274.001C522.142 274.319 522.193 274.611 522.51 274.611C522.828 274.611 522.752 274.191 522.752 273.873C522.764 268.162 490.418 265.21 459.483 265.21Z" fill="url(#paint21_linear_32_3240)"/>
<path d="M453.511 274.649C454.134 274.217 454.794 273.797 455.493 273.377C456.192 272.957 457.107 272.576 458.212 272.245C459.317 271.902 460.715 271.634 462.379 271.418C464.043 271.202 466.127 271.087 468.617 271.075C471.056 271.062 473.356 271.138 475.503 271.304C477.637 271.469 479.53 271.723 481.169 272.054C482.796 272.385 484.117 272.805 485.146 273.288C486.162 273.784 486.772 274.344 486.963 274.98L494.077 275.056C494.598 275.056 495.056 275.107 495.437 275.184C495.831 275.26 496.021 275.362 496.034 275.489V276.074L486.874 275.985C486.556 276.71 485.73 277.359 484.422 277.957C483.113 278.555 481.436 279.076 479.403 279.509L476.075 279.038C475.783 278.987 475.528 278.936 475.338 278.86C475.147 278.784 475.058 278.707 475.046 278.631C475.046 278.516 475.3 278.389 475.821 278.249C476.342 278.109 476.913 277.919 477.561 277.715C478.209 277.499 478.844 277.244 479.467 276.965C480.089 276.672 480.509 276.328 480.725 275.921L459.114 275.705C458.542 276.125 457.907 276.532 457.208 276.939C456.497 277.346 455.569 277.702 454.401 278.033C453.232 278.351 451.783 278.618 450.056 278.822C448.315 279.025 446.13 279.127 443.5 279.14C441.518 279.152 439.587 279.076 437.707 278.911C435.814 278.745 434.137 278.516 432.676 278.198C431.215 277.88 430.008 277.486 429.067 277.015C428.127 276.545 427.606 276.01 427.492 275.4L421.635 275.336C421.114 275.336 420.657 275.298 420.25 275.209C419.844 275.133 419.641 275.031 419.641 274.891V274.306L427.657 274.382C428.013 273.759 428.737 273.225 429.842 272.767C430.948 272.309 432.307 271.902 433.908 271.545L436.589 271.914C437.402 272.029 437.808 272.169 437.808 272.321C437.808 272.41 437.643 272.512 437.3 272.627C436.957 272.754 436.563 272.894 436.093 273.072C435.636 273.237 435.191 273.441 434.759 273.67C434.327 273.899 433.997 274.166 433.781 274.458L453.511 274.649ZM433.73 275.451C433.895 275.832 434.251 276.163 434.797 276.443C435.344 276.723 436.017 276.952 436.83 277.13C437.643 277.308 438.558 277.435 439.574 277.524C440.591 277.613 441.658 277.651 442.776 277.639C444.072 277.626 445.202 277.575 446.168 277.473C447.134 277.372 447.972 277.219 448.709 277.041C449.433 276.863 450.081 276.646 450.615 276.405C451.161 276.163 451.644 275.909 452.076 275.629L433.73 275.451ZM480.775 274.929C480.61 274.535 480.216 274.191 479.607 273.899C478.997 273.606 478.209 273.364 477.269 273.161C476.316 272.957 475.211 272.817 473.953 272.716C472.695 272.614 471.298 272.576 469.773 272.576C468.427 272.589 467.245 272.639 466.279 272.754C465.301 272.868 464.463 273.021 463.739 273.212C463.027 273.403 462.405 273.632 461.909 273.886C461.401 274.14 460.943 274.42 460.512 274.713L480.775 274.929Z" fill="url(#paint22_linear_32_3240)"/>
<path d="M459.495 266.864C431.304 266.864 401.943 269.345 397.242 274.153C397.42 274.318 397.598 274.509 397.751 274.7C401.714 271.367 425.955 267.996 459.495 267.996C493.9 267.996 518.521 271.533 521.507 274.954C521.659 274.764 521.812 274.586 521.977 274.42C518.102 269.446 488.195 266.864 459.495 266.864Z" fill="#24002D"/>
<path d="M407.939 259.333V273.377C407.939 277.919 436.258 281.595 471.183 281.595C506.108 281.595 534.427 277.919 534.427 273.377V259.333H407.939Z" fill="url(#paint23_linear_32_3240)"/>
<path d="M471.183 267.551C506.112 267.551 534.427 263.872 534.427 259.333C534.427 254.795 506.112 251.116 471.183 251.116C436.255 251.116 407.939 254.795 407.939 259.333C407.939 263.872 436.255 267.551 471.183 267.551Z" fill="#3D004D"/>
<path d="M471.183 268.123C440.247 268.123 407.901 265.159 407.901 259.46C407.901 259.142 408.016 258.595 408.321 258.595C408.638 258.595 408.498 259.028 408.498 259.333C408.498 262.946 434.238 266.979 471.171 266.979C508.103 266.979 533.843 262.946 533.843 259.333C533.843 259.015 533.894 258.723 534.211 258.723C534.529 258.723 534.453 259.142 534.453 259.46C534.453 265.172 502.106 268.123 471.183 268.123Z" fill="url(#paint24_linear_32_3240)"/>
<path d="M471.183 250.352C440.247 250.352 407.901 253.316 407.901 259.015C407.901 259.333 408.016 259.88 408.321 259.88C408.638 259.88 408.498 259.448 408.498 259.142C408.498 255.53 434.238 251.497 471.171 251.497C508.103 251.497 533.843 255.53 533.843 259.142C533.843 259.46 533.894 259.753 534.211 259.753C534.529 259.753 534.453 259.333 534.453 259.015C534.453 253.304 502.106 250.352 471.183 250.352Z" fill="url(#paint25_linear_32_3240)"/>
<path d="M465.2 259.791C465.822 259.359 466.483 258.939 467.181 258.519C467.88 258.099 468.795 257.718 469.9 257.387C471.006 257.043 472.403 256.776 474.067 256.56C475.732 256.344 477.815 256.229 480.305 256.217C482.745 256.204 485.044 256.28 487.191 256.446C489.326 256.611 491.219 256.865 492.858 257.196C494.484 257.527 495.805 257.947 496.834 258.43C497.851 258.926 498.46 259.486 498.651 260.122L505.766 260.198C506.286 260.198 506.744 260.249 507.125 260.325C507.519 260.402 507.709 260.504 507.722 260.631V261.216L498.562 261.127C498.244 261.852 497.419 262.501 496.11 263.099C494.801 263.696 493.124 264.218 491.092 264.651L487.763 264.18C487.471 264.129 487.217 264.078 487.026 264.002C486.836 263.925 486.747 263.849 486.734 263.773C486.734 263.658 486.988 263.531 487.509 263.391C488.03 263.251 488.602 263.06 489.249 262.857C489.897 262.641 490.533 262.386 491.155 262.106C491.778 261.814 492.197 261.47 492.413 261.063L470.802 260.847C470.231 261.267 469.595 261.674 468.897 262.081C468.185 262.488 467.258 262.844 466.089 263.175C464.92 263.493 463.472 263.76 461.744 263.964C460.003 264.167 457.818 264.269 455.188 264.282C453.206 264.294 451.275 264.218 449.395 264.053C447.502 263.887 445.825 263.658 444.364 263.34C442.903 263.022 441.696 262.628 440.756 262.157C439.816 261.687 439.295 261.152 439.18 260.542L433.323 260.478C432.803 260.478 432.345 260.44 431.939 260.351C431.532 260.275 431.329 260.173 431.329 260.033V259.448L439.346 259.524C439.701 258.901 440.425 258.366 441.531 257.908C442.636 257.451 443.995 257.043 445.596 256.687L448.277 257.056C449.09 257.171 449.497 257.311 449.497 257.463C449.497 257.552 449.331 257.654 448.988 257.769C448.645 257.896 448.251 258.036 447.781 258.214C447.324 258.379 446.879 258.583 446.447 258.812C446.015 259.041 445.685 259.308 445.469 259.6L465.2 259.791ZM445.431 260.593C445.596 260.974 445.952 261.305 446.498 261.585C447.045 261.865 447.718 262.094 448.531 262.272C449.344 262.45 450.259 262.577 451.275 262.666C452.292 262.755 453.359 262.793 454.477 262.781C455.773 262.768 456.903 262.717 457.869 262.615C458.834 262.513 459.673 262.361 460.41 262.183C461.134 262.005 461.782 261.788 462.316 261.547C462.862 261.305 463.345 261.051 463.777 260.771L445.431 260.593ZM492.464 260.071C492.299 259.677 491.905 259.333 491.295 259.041C490.685 258.748 489.897 258.506 488.957 258.303C488.004 258.099 486.899 257.959 485.641 257.858C484.384 257.756 482.986 257.718 481.461 257.718C480.115 257.73 478.933 257.781 477.968 257.896C476.989 258.01 476.151 258.163 475.427 258.354C474.715 258.545 474.093 258.773 473.597 259.028C473.089 259.282 472.632 259.562 472.2 259.855L492.464 260.071Z" fill="url(#paint26_linear_32_3240)"/>
<path d="M471.183 252.006C442.992 252.006 413.631 254.487 408.93 259.295C409.108 259.46 409.286 259.651 409.439 259.842C413.402 256.509 437.643 253.138 471.183 253.138C505.588 253.138 530.209 256.675 533.195 260.097C533.347 259.906 533.5 259.728 533.665 259.562C529.79 254.588 499.883 252.006 471.183 252.006Z" fill="#24002D"/>
<path d="M413.53 244.73V258.774C413.53 263.315 441.848 266.991 476.774 266.991C511.699 266.991 540.017 263.315 540.017 258.774V244.73H413.53Z" fill="url(#paint27_linear_32_3240)"/>
<path d="M476.761 252.947C511.689 252.947 540.004 249.268 540.004 244.73C540.004 240.191 511.689 236.512 476.761 236.512C441.832 236.512 413.517 240.191 413.517 244.73C413.517 249.268 441.832 252.947 476.761 252.947Z" fill="#3D004D"/>
<path d="M476.761 253.52C445.825 253.52 413.479 250.556 413.479 244.857C413.479 244.539 413.593 243.992 413.898 243.992C414.216 243.992 414.076 244.424 414.076 244.73C414.076 248.342 439.816 252.375 476.748 252.375C513.68 252.375 539.42 248.342 539.42 244.73C539.42 244.412 539.471 244.119 539.788 244.119C540.106 244.119 540.03 244.539 540.03 244.857C540.043 250.569 507.697 253.52 476.761 253.52Z" fill="url(#paint28_linear_32_3240)"/>
<path d="M476.761 235.749C445.825 235.749 413.479 238.713 413.479 244.412C413.479 244.73 413.593 245.277 413.898 245.277C414.216 245.277 414.076 244.844 414.076 244.539C414.076 240.926 439.816 236.894 476.748 236.894C513.68 236.894 539.42 240.926 539.42 244.539C539.42 244.857 539.471 245.149 539.788 245.149C540.106 245.149 540.03 244.73 540.03 244.412C540.043 238.713 507.697 235.749 476.761 235.749Z" fill="url(#paint29_linear_32_3240)"/>
<path d="M470.789 245.188C471.412 244.755 472.073 244.335 472.771 243.915C473.47 243.496 474.385 243.114 475.49 242.783C476.595 242.44 477.993 242.173 479.657 241.956C481.322 241.74 483.405 241.626 485.895 241.613C488.335 241.6 490.634 241.677 492.781 241.842C494.916 242.007 496.809 242.262 498.447 242.592C500.074 242.923 501.395 243.343 502.424 243.826C503.44 244.323 504.05 244.882 504.241 245.518L511.355 245.595C511.876 245.595 512.334 245.645 512.715 245.722C513.109 245.798 513.299 245.9 513.312 246.027V246.612L504.152 246.523C503.834 247.248 503.008 247.897 501.7 248.495C500.391 249.093 498.714 249.614 496.682 250.047L493.353 249.576C493.061 249.525 492.807 249.474 492.616 249.398C492.425 249.322 492.336 249.246 492.324 249.169C492.324 249.055 492.578 248.927 493.099 248.788C493.62 248.648 494.191 248.457 494.839 248.253C495.487 248.037 496.122 247.783 496.745 247.503C497.368 247.21 497.787 246.867 498.003 246.46L476.392 246.243C475.82 246.663 475.185 247.07 474.486 247.477C473.775 247.884 472.848 248.241 471.679 248.571C470.51 248.889 469.062 249.156 467.334 249.36C465.593 249.564 463.408 249.665 460.778 249.678C458.796 249.691 456.865 249.614 454.985 249.449C453.092 249.284 451.415 249.055 449.954 248.737C448.493 248.419 447.286 248.024 446.346 247.554C445.405 247.083 444.885 246.549 444.77 245.938L438.913 245.874C438.392 245.874 437.935 245.836 437.529 245.747C437.122 245.671 436.919 245.569 436.919 245.429V244.844L444.935 244.92C445.291 244.297 446.015 243.763 447.121 243.305C448.226 242.847 449.585 242.44 451.186 242.084L453.867 242.453C454.68 242.567 455.086 242.707 455.086 242.86C455.086 242.949 454.921 243.05 454.578 243.165C454.235 243.292 453.841 243.432 453.371 243.61C452.914 243.776 452.469 243.979 452.037 244.208C451.605 244.437 451.275 244.704 451.059 244.997L470.789 245.188ZM451.008 245.989C451.173 246.371 451.529 246.701 452.075 246.981C452.622 247.261 453.295 247.49 454.108 247.668C454.921 247.846 455.836 247.973 456.852 248.062C457.869 248.152 458.936 248.19 460.054 248.177C461.35 248.164 462.481 248.113 463.446 248.012C464.412 247.91 465.25 247.757 465.987 247.579C466.711 247.401 467.359 247.185 467.893 246.943C468.439 246.701 468.922 246.447 469.354 246.167L451.008 245.989ZM498.054 245.467C497.888 245.073 497.495 244.73 496.885 244.437C496.275 244.144 495.487 243.903 494.547 243.699C493.594 243.496 492.489 243.356 491.231 243.254C489.973 243.152 488.576 243.114 487.051 243.114C485.705 243.127 484.523 243.178 483.558 243.292C482.579 243.407 481.741 243.559 481.017 243.75C480.305 243.941 479.683 244.17 479.187 244.424C478.679 244.679 478.222 244.959 477.79 245.251L498.054 245.467Z" fill="url(#paint30_linear_32_3240)"/>
<path d="M476.773 237.402C448.582 237.402 419.221 239.883 414.521 244.691C414.698 244.857 414.876 245.048 415.029 245.238C418.993 241.906 443.233 238.534 476.773 238.534C511.178 238.534 535.799 242.071 538.785 245.493C538.937 245.302 539.09 245.124 539.255 244.959C535.38 239.985 505.473 237.402 476.773 237.402Z" fill="#24002D"/>
<path d="M406.288 230.762V244.806C406.288 249.347 434.607 253.024 469.532 253.024C504.457 253.024 532.775 249.347 532.775 244.806V230.762H406.288Z" fill="url(#paint31_linear_32_3240)"/>
<path d="M469.532 238.98C504.46 238.98 532.775 235.301 532.775 230.762C532.775 226.224 504.46 222.544 469.532 222.544C434.603 222.544 406.288 226.224 406.288 230.762C406.288 235.301 434.603 238.98 469.532 238.98Z" fill="#3D004D"/>
<path d="M469.532 239.552C438.596 239.552 406.25 236.588 406.25 230.889C406.25 230.571 406.364 230.024 406.669 230.024C406.987 230.024 406.847 230.457 406.847 230.762C406.847 234.375 432.587 238.407 469.519 238.407C506.451 238.407 532.191 234.375 532.191 230.762C532.191 230.444 532.242 230.151 532.56 230.151C532.877 230.151 532.801 230.571 532.801 230.889C532.814 236.601 500.468 239.552 469.532 239.552Z" fill="url(#paint32_linear_32_3240)"/>
<path d="M469.532 221.781C438.596 221.781 406.25 224.745 406.25 230.444C406.25 230.762 406.364 231.309 406.669 231.309C406.987 231.309 406.847 230.877 406.847 230.571C406.847 226.958 432.587 222.926 469.519 222.926C506.451 222.926 532.191 226.958 532.191 230.571C532.191 230.889 532.242 231.182 532.56 231.182C532.877 231.182 532.801 230.762 532.801 230.444C532.814 224.732 500.468 221.781 469.532 221.781Z" fill="url(#paint33_linear_32_3240)"/>
<path d="M463.561 231.22C464.183 230.787 464.844 230.368 465.542 229.948C466.241 229.528 467.156 229.146 468.261 228.816C469.367 228.472 470.764 228.205 472.428 227.989C474.093 227.773 476.176 227.658 478.666 227.645C481.106 227.633 483.405 227.709 485.552 227.874C487.687 228.04 489.58 228.294 491.219 228.625C492.845 228.956 494.166 229.375 495.195 229.859C496.212 230.355 496.821 230.915 497.012 231.551L504.127 231.627C504.647 231.627 505.105 231.678 505.486 231.754C505.88 231.831 506.07 231.932 506.083 232.06V232.645L496.923 232.556C496.605 233.281 495.78 233.93 494.471 234.527C493.162 235.125 491.485 235.647 489.453 236.079L486.124 235.609C485.832 235.558 485.578 235.507 485.387 235.431C485.197 235.354 485.108 235.278 485.095 235.202C485.095 235.087 485.349 234.96 485.87 234.82C486.391 234.68 486.963 234.489 487.61 234.286C488.258 234.069 488.894 233.815 489.516 233.535C490.139 233.243 490.558 232.899 490.774 232.492L469.163 232.276C468.592 232.696 467.956 233.103 467.258 233.51C466.546 233.917 465.619 234.273 464.45 234.604C463.281 234.922 461.833 235.189 460.105 235.392C458.364 235.596 456.179 235.698 453.549 235.71C451.567 235.723 449.636 235.647 447.756 235.481C445.863 235.316 444.186 235.087 442.725 234.769C441.264 234.451 440.057 234.057 439.117 233.586C438.177 233.115 437.656 232.581 437.541 231.971L431.685 231.907C431.164 231.907 430.706 231.869 430.3 231.78C429.893 231.703 429.69 231.602 429.69 231.462V230.877L437.707 230.953C438.062 230.33 438.786 229.795 439.892 229.337C440.997 228.879 442.356 228.472 443.957 228.116L446.638 228.485C447.451 228.599 447.858 228.739 447.858 228.892C447.858 228.981 447.692 229.083 447.349 229.197C447.006 229.325 446.613 229.464 446.142 229.643C445.685 229.808 445.24 230.011 444.808 230.24C444.377 230.469 444.046 230.737 443.83 231.029L463.561 231.22ZM443.779 232.021C443.945 232.403 444.3 232.734 444.847 233.014C445.393 233.293 446.066 233.522 446.879 233.701C447.692 233.879 448.607 234.006 449.624 234.095C450.64 234.184 451.707 234.222 452.825 234.209C454.121 234.197 455.252 234.146 456.217 234.044C457.183 233.942 458.021 233.79 458.758 233.612C459.482 233.433 460.13 233.217 460.664 232.975C461.21 232.734 461.693 232.479 462.125 232.199L443.779 232.021ZM490.825 231.5C490.66 231.105 490.266 230.762 489.656 230.469C489.046 230.177 488.258 229.935 487.318 229.732C486.365 229.528 485.26 229.388 484.002 229.286C482.745 229.185 481.347 229.146 479.823 229.146C478.476 229.159 477.294 229.21 476.329 229.325C475.351 229.439 474.512 229.592 473.788 229.782C473.076 229.973 472.454 230.202 471.958 230.457C471.45 230.711 470.993 230.991 470.561 231.284L490.825 231.5Z" fill="url(#paint34_linear_32_3240)"/>
<path d="M469.544 223.435C441.353 223.435 411.992 225.915 407.292 230.724C407.469 230.889 407.647 231.08 407.8 231.271C411.764 227.938 436.004 224.567 469.544 224.567C503.949 224.567 528.57 228.103 531.556 231.525C531.708 231.334 531.861 231.156 532.026 230.991C528.151 226.017 498.244 223.435 469.544 223.435Z" fill="#24002D"/>
<path d="M386.99 216.794V230.838C386.99 235.38 415.308 239.056 450.233 239.056C485.158 239.056 513.477 235.38 513.477 230.838V216.794H386.99Z" fill="url(#paint35_linear_32_3240)"/>
<path d="M450.233 225.012C485.162 225.012 513.477 221.333 513.477 216.794C513.477 212.256 485.162 208.577 450.233 208.577C415.305 208.577 386.99 212.256 386.99 216.794C386.99 221.333 415.305 225.012 450.233 225.012Z" fill="#3D004D"/>
<path d="M450.233 225.584C419.297 225.584 386.951 222.621 386.951 216.922C386.951 216.604 387.066 216.057 387.371 216.057C387.688 216.057 387.549 216.489 387.549 216.794C387.549 220.407 413.288 224.44 450.221 224.44C487.153 224.44 512.893 220.407 512.893 216.794C512.893 216.476 512.944 216.184 513.261 216.184C513.579 216.184 513.503 216.604 513.503 216.922C513.503 222.621 481.156 225.584 450.233 225.584Z" fill="url(#paint36_linear_32_3240)"/>
<path d="M450.233 207.813C419.297 207.813 386.951 210.777 386.951 216.476C386.951 216.794 387.066 217.341 387.371 217.341C387.688 217.341 387.549 216.909 387.549 216.604C387.549 212.991 413.288 208.958 450.221 208.958C487.153 208.958 512.893 212.991 512.893 216.604C512.893 216.922 512.944 217.214 513.261 217.214C513.579 217.214 513.503 216.794 513.503 216.476C513.503 210.765 481.156 207.813 450.233 207.813Z" fill="url(#paint37_linear_32_3240)"/>
<path d="M444.249 217.252C444.872 216.82 445.532 216.4 446.231 215.98C446.93 215.56 447.845 215.179 448.95 214.848C450.055 214.505 451.453 214.237 453.117 214.021C454.781 213.805 456.865 213.69 459.355 213.678C461.794 213.665 464.094 213.741 466.241 213.907C468.375 214.072 470.268 214.327 471.907 214.657C473.534 214.988 474.855 215.408 475.884 215.891C476.9 216.387 477.51 216.947 477.701 217.583L484.815 217.659C485.336 217.659 485.794 217.71 486.175 217.787C486.569 217.863 486.759 217.965 486.772 218.092V218.677L477.612 218.588C477.294 219.313 476.468 219.962 475.16 220.56C473.851 221.158 472.174 221.679 470.141 222.112L466.813 221.641C466.521 221.59 466.266 221.539 466.076 221.463C465.885 221.387 465.796 221.31 465.784 221.234C465.784 221.119 466.038 220.992 466.559 220.852C467.08 220.712 467.651 220.522 468.299 220.318C468.947 220.102 469.582 219.847 470.205 219.568C470.827 219.275 471.247 218.931 471.463 218.524L449.852 218.308C449.28 218.728 448.645 219.135 447.946 219.542C447.235 219.949 446.307 220.305 445.139 220.636C443.97 220.954 442.521 221.221 440.794 221.425C439.053 221.628 436.868 221.73 434.238 221.743C432.256 221.755 430.325 221.679 428.445 221.514C426.552 221.348 424.875 221.119 423.414 220.801C421.953 220.483 420.746 220.089 419.806 219.618C418.865 219.148 418.344 218.613 418.23 218.003L412.373 217.939C411.852 217.939 411.395 217.901 410.988 217.812C410.582 217.736 410.379 217.634 410.379 217.494V216.909L418.395 216.985C418.751 216.362 419.475 215.828 420.581 215.37C421.686 214.912 423.045 214.505 424.646 214.148L427.327 214.517C428.14 214.632 428.546 214.772 428.546 214.924C428.546 215.013 428.381 215.115 428.038 215.23C427.695 215.357 427.301 215.497 426.831 215.675C426.374 215.84 425.929 216.044 425.497 216.273C425.065 216.502 424.735 216.769 424.519 217.061L444.249 217.252ZM424.481 218.054C424.646 218.435 425.002 218.766 425.548 219.046C426.094 219.326 426.768 219.555 427.581 219.733C428.394 219.911 429.309 220.038 430.325 220.127C431.341 220.216 432.409 220.254 433.527 220.242C434.822 220.229 435.953 220.178 436.919 220.076C437.884 219.975 438.723 219.822 439.46 219.644C440.184 219.466 440.832 219.249 441.365 219.008C441.912 218.766 442.394 218.512 442.826 218.232L424.481 218.054ZM471.513 217.532C471.348 217.138 470.954 216.794 470.345 216.502C469.735 216.209 468.947 215.967 468.007 215.764C467.054 215.56 465.949 215.421 464.691 215.319C463.433 215.217 462.036 215.179 460.511 215.179C459.165 215.192 457.983 215.242 457.017 215.357C456.039 215.471 455.201 215.624 454.477 215.815C453.765 216.006 453.143 216.235 452.647 216.489C452.139 216.743 451.682 217.023 451.25 217.316L471.513 217.532Z" fill="url(#paint38_linear_32_3240)"/>
<path d="M450.234 209.467C422.042 209.467 392.681 211.948 387.981 216.756C388.159 216.922 388.336 217.112 388.489 217.303C392.453 213.97 416.693 210.599 450.234 210.599C484.638 210.599 509.259 214.136 512.245 217.558C512.397 217.367 512.55 217.189 512.715 217.023C508.853 212.049 478.933 209.467 450.234 209.467Z" fill="#24002D"/>
<path d="M398.868 200.333V214.377C398.868 218.919 427.187 222.595 462.112 222.595C497.037 222.595 525.356 218.919 525.356 214.377V200.333H398.868Z" fill="url(#paint39_linear_32_3240)"/>
<path d="M462.099 208.551C497.028 208.551 525.343 204.872 525.343 200.334C525.343 195.795 497.028 192.116 462.099 192.116C427.171 192.116 398.856 195.795 398.856 200.334C398.856 204.872 427.171 208.551 462.099 208.551Z" fill="#3D004D"/>
<path d="M462.1 209.111C431.164 209.111 398.818 206.147 398.818 200.448C398.818 200.13 398.932 199.583 399.237 199.583C399.555 199.583 399.415 200.016 399.415 200.321C399.415 203.934 425.154 207.966 462.087 207.966C499.019 207.966 524.759 203.934 524.759 200.321C524.759 200.003 524.81 199.71 525.127 199.71C525.445 199.71 525.369 200.13 525.369 200.448C525.381 206.16 493.035 209.111 462.1 209.111Z" fill="url(#paint40_linear_32_3240)"/>
<path d="M462.1 191.353C431.164 191.353 398.818 194.316 398.818 200.015C398.818 200.334 398.932 200.881 399.237 200.881C399.555 200.881 399.415 200.448 399.415 200.143C399.415 196.53 425.154 192.497 462.087 192.497C499.019 192.497 524.759 196.53 524.759 200.143C524.759 200.461 524.81 200.753 525.127 200.753C525.445 200.753 525.369 200.334 525.369 200.015C525.381 194.304 493.035 191.353 462.1 191.353Z" fill="url(#paint41_linear_32_3240)"/>
<path d="M456.128 200.791C456.751 200.359 457.412 199.939 458.11 199.519C458.809 199.1 459.724 198.718 460.829 198.387C461.934 198.044 463.332 197.777 464.996 197.56C466.661 197.344 468.744 197.23 471.234 197.217C473.674 197.204 475.973 197.28 478.12 197.446C480.255 197.611 482.148 197.866 483.786 198.196C485.413 198.527 486.734 198.947 487.763 199.43C488.779 199.926 489.389 200.486 489.58 201.122L496.694 201.198C497.215 201.198 497.673 201.249 498.054 201.326C498.448 201.402 498.638 201.504 498.651 201.631V202.216L489.491 202.127C489.173 202.852 488.347 203.501 487.039 204.099C485.73 204.697 484.053 205.218 482.021 205.651L478.692 205.18C478.4 205.129 478.146 205.078 477.955 205.002C477.764 204.926 477.676 204.849 477.663 204.773C477.663 204.659 477.917 204.531 478.438 204.391C478.959 204.252 479.53 204.061 480.178 203.857C480.826 203.641 481.462 203.386 482.084 203.107C482.707 202.814 483.126 202.471 483.342 202.064L461.731 201.847C461.159 202.267 460.524 202.674 459.825 203.081C459.114 203.488 458.187 203.844 457.018 204.175C455.849 204.493 454.401 204.76 452.673 204.964C450.932 205.167 448.747 205.269 446.117 205.282C444.135 205.295 442.204 205.218 440.324 205.053C438.431 204.888 436.754 204.659 435.293 204.341C433.832 204.023 432.625 203.628 431.685 203.158C430.745 202.687 430.224 202.153 430.109 201.542L424.252 201.478C423.732 201.478 423.274 201.44 422.868 201.351C422.461 201.275 422.258 201.173 422.258 201.033V200.448L430.274 200.524C430.63 199.901 431.354 199.367 432.46 198.909C433.565 198.451 434.924 198.044 436.525 197.688L439.206 198.056C440.019 198.171 440.425 198.311 440.425 198.463C440.425 198.553 440.26 198.654 439.917 198.769C439.574 198.896 439.18 199.036 438.71 199.214C438.253 199.379 437.808 199.583 437.376 199.812C436.944 200.041 436.614 200.308 436.398 200.601L456.128 200.791ZM436.36 201.593C436.525 201.974 436.881 202.305 437.427 202.585C437.973 202.865 438.647 203.094 439.46 203.272C440.273 203.45 441.188 203.577 442.204 203.666C443.221 203.755 444.288 203.794 445.406 203.781C446.702 203.768 447.832 203.717 448.798 203.615C449.763 203.514 450.602 203.361 451.339 203.183C452.063 203.005 452.711 202.789 453.244 202.547C453.791 202.305 454.274 202.051 454.706 201.771L436.36 201.593ZM483.393 201.059C483.227 200.664 482.834 200.321 482.224 200.028C481.614 199.736 480.826 199.494 479.886 199.29C478.933 199.087 477.828 198.947 476.57 198.845C475.312 198.743 473.915 198.705 472.39 198.705C471.044 198.718 469.862 198.769 468.897 198.883C467.918 198.998 467.08 199.15 466.356 199.341C465.644 199.532 465.022 199.761 464.526 200.015C464.018 200.27 463.561 200.55 463.129 200.842L483.393 201.059Z" fill="url(#paint42_linear_32_3240)"/>
<path d="M462.112 193.006C433.921 193.006 404.56 195.487 399.859 200.295C400.037 200.461 400.215 200.651 400.368 200.842C404.331 197.497 428.572 194.138 462.112 194.138C496.516 194.138 521.138 197.675 524.124 201.097C524.276 200.906 524.429 200.728 524.594 200.562C520.719 195.576 490.812 193.006 462.112 193.006Z" fill="#24002D"/>
<path d="M384.182 184.712V198.756C384.182 203.297 412.501 206.974 447.426 206.974C482.351 206.974 510.669 203.297 510.669 198.756V184.712H384.182Z" fill="url(#paint43_linear_32_3240)"/>
<path d="M447.413 192.93C482.342 192.93 510.657 189.251 510.657 184.712C510.657 180.174 482.342 176.495 447.413 176.495C412.484 176.495 384.169 180.174 384.169 184.712C384.169 189.251 412.484 192.93 447.413 192.93Z" fill="#3D004D"/>
<path d="M447.413 193.49C416.477 193.49 384.131 190.526 384.131 184.827C384.131 184.509 384.245 183.962 384.55 183.962C384.868 183.962 384.728 184.394 384.728 184.699C384.728 188.312 410.468 192.345 447.4 192.345C484.333 192.345 510.072 188.312 510.072 184.699C510.072 184.381 510.123 184.089 510.441 184.089C510.758 184.089 510.682 184.509 510.682 184.827C510.695 190.538 478.349 193.49 447.413 193.49Z" fill="url(#paint44_linear_32_3240)"/>
<path d="M447.413 175.731C416.477 175.731 384.131 178.695 384.131 184.394C384.131 184.712 384.245 185.259 384.55 185.259C384.868 185.259 384.728 184.827 384.728 184.521C384.728 180.909 410.468 176.876 447.4 176.876C484.333 176.876 510.072 180.909 510.072 184.521C510.072 184.839 510.123 185.132 510.441 185.132C510.758 185.132 510.682 184.712 510.682 184.394C510.695 178.682 478.349 175.731 447.413 175.731Z" fill="url(#paint45_linear_32_3240)"/>
<path d="M441.442 185.17C442.064 184.738 442.725 184.318 443.424 183.898C444.122 183.478 445.037 183.097 446.142 182.766C447.248 182.422 448.645 182.155 450.31 181.939C451.974 181.723 454.057 181.608 456.548 181.595C458.987 181.583 461.286 181.659 463.433 181.824C465.568 181.99 467.461 182.244 469.1 182.575C470.726 182.906 472.047 183.326 473.076 183.809C474.093 184.305 474.703 184.865 474.893 185.501L482.008 185.577C482.529 185.577 482.986 185.628 483.367 185.704C483.761 185.781 483.952 185.883 483.964 186.01V186.595L474.804 186.506C474.487 187.231 473.661 187.88 472.352 188.478C471.044 189.076 469.367 189.597 467.334 190.03L464.005 189.559C463.713 189.508 463.459 189.457 463.268 189.381C463.078 189.305 462.989 189.228 462.976 189.152C462.976 189.037 463.23 188.91 463.751 188.77C464.272 188.63 464.844 188.439 465.492 188.236C466.14 188.02 466.775 187.765 467.397 187.485C468.02 187.193 468.439 186.849 468.655 186.442L447.044 186.226C446.473 186.646 445.838 187.053 445.139 187.46C444.427 187.867 443.5 188.223 442.331 188.554C441.162 188.872 439.714 189.139 437.986 189.343C436.245 189.546 434.06 189.648 431.43 189.661C429.448 189.673 427.517 189.597 425.637 189.432C423.744 189.266 422.067 189.037 420.606 188.719C419.145 188.401 417.938 188.007 416.998 187.536C416.058 187.066 415.537 186.531 415.423 185.921L409.566 185.857C409.045 185.857 408.587 185.819 408.181 185.73C407.774 185.654 407.571 185.552 407.571 185.412V184.827L415.588 184.903C415.943 184.28 416.668 183.745 417.773 183.287C418.878 182.829 420.238 182.422 421.838 182.066L424.519 182.435C425.332 182.55 425.739 182.69 425.739 182.842C425.739 182.931 425.574 183.033 425.231 183.147C424.888 183.275 424.494 183.415 424.024 183.593C423.566 183.758 423.122 183.962 422.69 184.191C422.258 184.42 421.927 184.687 421.711 184.979L441.442 185.17ZM421.661 185.972C421.826 186.353 422.181 186.684 422.728 186.964C423.274 187.244 423.947 187.473 424.76 187.651C425.574 187.829 426.488 187.956 427.505 188.045C428.521 188.134 429.588 188.172 430.706 188.16C432.002 188.147 433.133 188.096 434.098 187.994C435.064 187.892 435.902 187.74 436.639 187.562C437.363 187.384 438.011 187.167 438.545 186.926C439.091 186.684 439.574 186.43 440.006 186.15L421.661 185.972ZM468.706 185.437C468.541 185.043 468.147 184.699 467.537 184.407C466.927 184.114 466.14 183.873 465.199 183.669C464.247 183.465 463.141 183.326 461.884 183.224C460.626 183.122 459.228 183.084 457.704 183.084C456.357 183.097 455.175 183.147 454.21 183.262C453.232 183.376 452.393 183.529 451.669 183.72C450.958 183.911 450.335 184.14 449.839 184.394C449.331 184.649 448.874 184.928 448.442 185.221L468.706 185.437Z" fill="url(#paint46_linear_32_3240)"/>
<path d="M447.426 177.385C419.234 177.385 389.874 179.865 385.173 184.674C385.351 184.839 385.529 185.03 385.681 185.221C389.645 181.888 413.885 178.517 447.426 178.517C481.83 178.517 506.451 182.053 509.437 185.475C509.59 185.285 509.742 185.106 509.907 184.941C506.032 179.955 476.125 177.385 447.426 177.385Z" fill="#24002D"/>
<path d="M513.801 109.9C513.801 140.863 489.624 165.211 458.726 164.257C426.571 163.265 399.523 135.457 399.523 102.179C399.523 68.9008 426.571 44.7437 458.726 48.0893C489.624 51.3331 513.801 78.9503 513.801 109.9Z" fill="url(#paint47_linear_32_3240)"/>
<path d="M522.161 107.229C522.161 138.192 497.984 162.54 467.086 161.586C434.931 160.593 407.883 132.785 407.883 99.5073C407.883 66.2294 434.931 42.0723 467.086 45.4179C497.984 48.6617 522.161 76.2789 522.161 107.229Z" fill="url(#paint48_linear_32_3240)"/>
<path d="M519.734 107.076C519.734 136.678 496.599 159.919 467.086 158.952C436.417 157.96 410.677 131.424 410.677 99.7109C410.677 67.9976 436.43 44.9345 467.086 48.0893C496.599 51.1169 519.734 77.4747 519.734 107.076Z" fill="#24002D"/>
<path d="M517.994 106.949C517.994 135.571 495.608 158.011 467.073 157.057C437.472 156.065 412.647 130.432 412.647 99.838C412.647 69.2441 437.472 46.9698 467.073 49.9719C495.608 52.8595 517.994 78.3396 517.994 106.949Z" fill="#3D004D"/>
<path d="M438.895 114.149L454.089 112.572C455.195 119.059 459.146 122.507 465.943 122.914C469.564 123.13 472.282 122.672 474.112 121.553C475.941 120.433 476.881 118.894 476.958 116.935C476.996 115.587 476.64 114.505 475.878 113.691C475.077 112.877 473.451 112.101 471.025 111.389C458.739 107.75 450.964 104.519 447.686 101.708C443.608 98.1844 441.651 93.5794 441.842 87.8804C442.033 82.1814 444.23 77.7418 448.436 74.5616C452.654 71.3813 458.663 70.0202 466.476 70.4909C473.934 70.9361 479.562 72.5517 483.361 75.3376C487.16 78.1234 489.751 82.4104 491.136 88.1857L476.843 90.1575C475.738 85.1708 472.244 82.4995 466.349 82.1433C462.64 81.927 459.984 82.2323 458.383 83.0846C456.783 83.9369 455.957 85.1072 455.906 86.6083C455.868 87.9567 456.541 89.1143 457.952 90.0811C459.362 91.0861 463.783 92.7525 471.228 95.0677C479.575 97.6628 485.203 100.538 488.125 103.68C490.996 106.822 492.356 110.842 492.203 115.765C492.013 121.68 489.548 126.425 484.822 129.987C480.096 133.561 473.667 135.101 465.562 134.604C458.193 134.159 452.222 132.2 447.661 128.715C443.1 125.229 440.178 120.382 438.895 114.149Z" fill="#24002D"/>
<path d="M438.678 112.495L453.873 110.918C454.979 117.406 458.93 120.853 465.727 121.26C469.347 121.476 472.066 121.018 473.896 119.899C475.725 118.78 476.665 117.24 476.742 115.281C476.78 113.933 476.424 112.852 475.662 112.038C474.861 111.223 473.235 110.447 470.809 109.735C458.523 106.097 450.748 102.866 447.47 100.054C443.392 96.5307 441.435 91.9257 441.626 86.2267C441.817 80.5277 444.014 76.0881 448.22 72.9079C452.438 69.7277 458.447 68.3665 466.26 68.8372C473.718 69.2824 479.346 70.898 483.145 73.6839C486.943 76.4698 489.535 80.7567 490.92 86.532L476.627 88.5038C475.522 83.5172 472.028 80.8458 466.133 80.4896C462.423 80.2733 459.768 80.5786 458.167 81.4309C456.567 82.2832 455.741 83.4536 455.69 84.9546C455.652 86.303 456.325 87.4606 457.735 88.4274C459.146 89.4324 463.567 91.0988 471.012 93.4141C479.359 96.0091 484.987 98.884 487.909 102.026C490.78 105.168 492.14 109.188 491.987 114.111C491.797 120.026 489.332 124.771 484.606 128.333C479.88 131.908 473.451 133.447 465.346 132.951C457.977 132.505 452.006 130.546 447.445 127.061C442.884 123.588 439.949 118.729 438.678 112.495Z" fill="url(#paint49_linear_32_3240)"/>
<path opacity="0.1" d="M457.863 113.958C459.578 96.9504 475.192 89.7503 473.159 74.0908C471.901 64.4484 464.596 56.3197 456.452 49.9719C431.755 52.567 412.647 73.0477 412.647 99.838C412.647 130.432 437.472 156.065 467.073 157.057C469.945 157.159 472.752 157.006 475.484 156.65C463.732 144.934 456.389 128.575 457.863 113.958Z" fill="black"/>
<defs>
<filter id="filter0_f_32_3240" x="0" y="239" width="23" height="23" filterUnits="userSpaceOnUse" color-interpolation-filters="sRGB">
<feFlood flood-opacity="0" result="BackgroundImageFix"/>
<feBlend mode="normal" in="SourceGraphic" in2="BackgroundImageFix" result="shape"/>
<feGaussianBlur stdDeviation="3" result="effect1_foregroundBlur_32_3240"/>
</filter>
<filter id="filter1_f_32_3240" x="543" y="181" width="23" height="23" filterUnits="userSpaceOnUse" color-interpolation-filters="sRGB">
<feFlood flood-opacity="0" result="BackgroundImageFix"/>
<feBlend mode="normal" in="SourceGraphic" in2="BackgroundImageFix" result="shape"/>
<feGaussianBlur stdDeviation="3" result="effect1_foregroundBlur_32_3240"/>
</filter>
<filter id="filter2_f_32_3240" x="543" y="331" width="23" height="23" filterUnits="userSpaceOnUse" color-interpolation-filters="sRGB">
<feFlood flood-opacity="0" result="BackgroundImageFix"/>
<feBlend mode="normal" in="SourceGraphic" in2="BackgroundImageFix" result="shape"/>
<feGaussianBlur stdDeviation="3" result="effect1_foregroundBlur_32_3240"/>
</filter>
<filter id="filter3_f_32_3240" x="224" y="335" width="15" height="15" filterUnits="userSpaceOnUse" color-interpolation-filters="sRGB">
<feFlood flood-opacity="0" result="BackgroundImageFix"/>
<feBlend mode="normal" in="SourceGraphic" in2="BackgroundImageFix" result="shape"/>
<feGaussianBlur stdDeviation="2" result="effect1_foregroundBlur_32_3240"/>
</filter>
<filter id="filter4_f_32_3240" x="382" y="384" width="23" height="23" filterUnits="userSpaceOnUse" color-interpolation-filters="sRGB">
<feFlood flood-opacity="0" result="BackgroundImageFix"/>
<feBlend mode="normal" in="SourceGraphic" in2="BackgroundImageFix" result="shape"/>
<feGaussianBlur stdDeviation="3" result="effect1_foregroundBlur_32_3240"/>
</filter>
<filter id="filter5_f_32_3240" x="288" y="260" width="17" height="17" filterUnits="userSpaceOnUse" color-interpolation-filters="sRGB">
<feFlood flood-opacity="0" result="BackgroundImageFix"/>
<feBlend mode="normal" in="SourceGraphic" in2="BackgroundImageFix" result="shape"/>
<feGaussianBlur stdDeviation="2" result="effect1_foregroundBlur_32_3240"/>
</filter>
<filter id="filter6_f_32_3240" x="274" y="167" width="23" height="23" filterUnits="userSpaceOnUse" color-interpolation-filters="sRGB">
<feFlood flood-opacity="0" result="BackgroundImageFix"/>
<feBlend mode="normal" in="SourceGraphic" in2="BackgroundImageFix" result="shape"/>
<feGaussianBlur stdDeviation="3" result="effect1_foregroundBlur_32_3240"/>
</filter>
<linearGradient id="paint0_linear_32_3240" x1="13.6944" y1="243.969" x2="13.0652" y2="256.254" gradientUnits="userSpaceOnUse">
<stop stop-color="#E250E5"/>
<stop offset="1" stop-color="#4B50E6"/>
</linearGradient>
<linearGradient id="paint1_linear_32_3240" x1="556.694" y1="185.969" x2="556.065" y2="198.254" gradientUnits="userSpaceOnUse">
<stop stop-color="#E250E5"/>
<stop offset="1" stop-color="#4B50E6"/>
</linearGradient>
<linearGradient id="paint2_linear_32_3240" x1="556.694" y1="335.969" x2="556.065" y2="348.254" gradientUnits="userSpaceOnUse">
<stop stop-color="#E250E5"/>
<stop offset="1" stop-color="#4B50E6"/>
</linearGradient>
<linearGradient id="paint3_linear_32_3240" x1="232.896" y1="338.344" x2="232.496" y2="346.161" gradientUnits="userSpaceOnUse">
<stop stop-color="#E250E5"/>
<stop offset="1" stop-color="#4B50E6"/>
</linearGradient>
<linearGradient id="paint4_linear_32_3240" x1="395.694" y1="388.969" x2="395.065" y2="401.254" gradientUnits="userSpaceOnUse">
<stop stop-color="#E250E5"/>
<stop offset="1" stop-color="#4B50E6"/>
</linearGradient>
<linearGradient id="paint5_linear_32_3240" x1="342.035" y1="67.7505" x2="342.035" y2="139.072" gradientUnits="userSpaceOnUse">
<stop stop-color="#833EF1"/>
<stop offset="1" stop-color="#491CB5"/>
</linearGradient>
<linearGradient id="paint6_linear_32_3240" x1="361.919" y1="0" x2="361.919" y2="68.5668" gradientUnits="userSpaceOnUse">
<stop stop-color="#833EF1"/>
<stop offset="1" stop-color="#491CB5"/>
</linearGradient>
<linearGradient id="paint7_linear_32_3240" x1="312.942" y1="121.216" x2="312.942" y2="172.743" gradientUnits="userSpaceOnUse">
<stop stop-color="#833EF1"/>
<stop offset="1" stop-color="#491CB5"/>
</linearGradient>
<linearGradient id="paint8_linear_32_3240" x1="261.649" y1="87.0349" x2="261.649" y2="202.129" gradientUnits="userSpaceOnUse">
<stop stop-color="#833EF1"/>
<stop offset="1" stop-color="#491CB5"/>
</linearGradient>
<linearGradient id="paint9_linear_32_3240" x1="220.75" y1="177.029" x2="220.75" y2="234.576" gradientUnits="userSpaceOnUse">
<stop stop-color="#833EF1"/>
<stop offset="1" stop-color="#491CB5"/>
</linearGradient>
<linearGradient id="paint10_linear_32_3240" x1="153.752" y1="145.5" x2="153.752" y2="295.082" gradientUnits="userSpaceOnUse">
<stop stop-color="#833EF1"/>
<stop offset="1" stop-color="#491CB5"/>
</linearGradient>
<linearGradient id="paint11_linear_32_3240" x1="136.918" y1="290.797" x2="136.918" y2="301" gradientUnits="userSpaceOnUse">
<stop stop-color="#833EF1"/>
<stop offset="1" stop-color="#491CB5"/>
</linearGradient>
<linearGradient id="paint12_linear_32_3240" x1="374.856" y1="4.08138" x2="273.282" y2="380.375" gradientUnits="userSpaceOnUse">
<stop stop-color="#E250E5"/>
<stop offset="0.53991" stop-color="#9D50E6"/>
<stop offset="0.925822" stop-color="#4B50E6"/>
</linearGradient>
<linearGradient id="paint13_linear_32_3240" x1="298.295" y1="263.156" x2="297.781" y2="273.208" gradientUnits="userSpaceOnUse">
<stop stop-color="#E250E5"/>
<stop offset="1" stop-color="#4B50E6"/>
</linearGradient>
<linearGradient id="paint14_linear_32_3240" x1="287.694" y1="171.969" x2="287.065" y2="184.254" gradientUnits="userSpaceOnUse">
<stop stop-color="#E250E5"/>
<stop offset="1" stop-color="#4B50E6"/>
</linearGradient>
<linearGradient id="paint15_linear_32_3240" x1="409.585" y1="298.864" x2="536.063" y2="298.864" gradientUnits="userSpaceOnUse">
<stop stop-color="#B100A7"/>
<stop offset="0.0566727" stop-color="#A700A5"/>
<stop offset="0.2002" stop-color="#9400A2"/>
<stop offset="0.3686" stop-color="#8700A0"/>
<stop offset="0.5831" stop-color="#7F009E"/>
<stop offset="1" stop-color="#7D009E"/>
</linearGradient>
<linearGradient id="paint16_linear_32_3240" x1="471.861" y1="279.585" x2="474.222" y2="299.331" gradientUnits="userSpaceOnUse">
<stop stop-color="#FFDB44"/>
<stop offset="1" stop-color="#F100F7"/>
</linearGradient>
<linearGradient id="paint17_linear_32_3240" x1="471.861" y1="295.685" x2="474.222" y2="275.938" gradientUnits="userSpaceOnUse">
<stop stop-color="#FFDB44"/>
<stop offset="1" stop-color="#F100F7"/>
</linearGradient>
<linearGradient id="paint18_linear_32_3240" x1="432.987" y1="288.837" x2="509.378" y2="288.837" gradientUnits="userSpaceOnUse">
<stop stop-color="#FF9F14"/>
<stop offset="1" stop-color="#FF0DD9"/>
</linearGradient>
<linearGradient id="paint19_linear_32_3240" x1="396.244" y1="285.326" x2="522.722" y2="285.326" gradientUnits="userSpaceOnUse">
<stop stop-color="#B100A7"/>
<stop offset="0.0566727" stop-color="#A700A5"/>
<stop offset="0.2002" stop-color="#9400A2"/>
<stop offset="0.3686" stop-color="#8700A0"/>
<stop offset="0.5831" stop-color="#7F009E"/>
<stop offset="1" stop-color="#7D009E"/>
</linearGradient>
<linearGradient id="paint20_linear_32_3240" x1="458.52" y1="266.046" x2="460.881" y2="285.793" gradientUnits="userSpaceOnUse">
<stop stop-color="#FFDB44"/>
<stop offset="1" stop-color="#F100F7"/>
</linearGradient>
<linearGradient id="paint21_linear_32_3240" x1="458.52" y1="282.146" x2="460.881" y2="262.4" gradientUnits="userSpaceOnUse">
<stop stop-color="#FFDB44"/>
<stop offset="1" stop-color="#F100F7"/>
</linearGradient>
<linearGradient id="paint22_linear_32_3240" x1="419.646" y1="275.299" x2="496.037" y2="275.299" gradientUnits="userSpaceOnUse">
<stop stop-color="#FF9F14"/>
<stop offset="1" stop-color="#FF0DD9"/>
</linearGradient>
<linearGradient id="paint23_linear_32_3240" x1="407.939" y1="270.468" x2="534.417" y2="270.468" gradientUnits="userSpaceOnUse">
<stop stop-color="#B100A7"/>
<stop offset="0.0566727" stop-color="#A700A5"/>
<stop offset="0.2002" stop-color="#9400A2"/>
<stop offset="0.3686" stop-color="#8700A0"/>
<stop offset="0.5831" stop-color="#7F009E"/>
<stop offset="1" stop-color="#7D009E"/>
</linearGradient>
<linearGradient id="paint24_linear_32_3240" x1="470.215" y1="251.188" x2="472.577" y2="270.935" gradientUnits="userSpaceOnUse">
<stop stop-color="#FFDB44"/>
<stop offset="1" stop-color="#F100F7"/>
</linearGradient>
<linearGradient id="paint25_linear_32_3240" x1="470.215" y1="267.288" x2="472.577" y2="247.542" gradientUnits="userSpaceOnUse">
<stop stop-color="#FFDB44"/>
<stop offset="1" stop-color="#F100F7"/>
</linearGradient>
<linearGradient id="paint26_linear_32_3240" x1="431.341" y1="260.441" x2="507.733" y2="260.441" gradientUnits="userSpaceOnUse">
<stop stop-color="#FF9F14"/>
<stop offset="1" stop-color="#FF0DD9"/>
</linearGradient>
<linearGradient id="paint27_linear_32_3240" x1="413.525" y1="255.864" x2="540.004" y2="255.864" gradientUnits="userSpaceOnUse">
<stop stop-color="#B100A7"/>
<stop offset="0.0566727" stop-color="#A700A5"/>
<stop offset="0.2002" stop-color="#9400A2"/>
<stop offset="0.3686" stop-color="#8700A0"/>
<stop offset="0.5831" stop-color="#7F009E"/>
<stop offset="1" stop-color="#7D009E"/>
</linearGradient>
<linearGradient id="paint28_linear_32_3240" x1="475.801" y1="236.585" x2="478.163" y2="256.332" gradientUnits="userSpaceOnUse">
<stop stop-color="#FFDB44"/>
<stop offset="1" stop-color="#F100F7"/>
</linearGradient>
<linearGradient id="paint29_linear_32_3240" x1="475.801" y1="252.685" x2="478.163" y2="232.938" gradientUnits="userSpaceOnUse">
<stop stop-color="#FFDB44"/>
<stop offset="1" stop-color="#F100F7"/>
</linearGradient>
<linearGradient id="paint30_linear_32_3240" x1="436.927" y1="245.837" x2="513.318" y2="245.837" gradientUnits="userSpaceOnUse">
<stop stop-color="#FF9F14"/>
<stop offset="1" stop-color="#FF0DD9"/>
</linearGradient>
<linearGradient id="paint31_linear_32_3240" x1="406.293" y1="241.896" x2="532.772" y2="241.896" gradientUnits="userSpaceOnUse">
<stop stop-color="#B100A7"/>
<stop offset="0.0566727" stop-color="#A700A5"/>
<stop offset="0.2002" stop-color="#9400A2"/>
<stop offset="0.3686" stop-color="#8700A0"/>
<stop offset="0.5831" stop-color="#7F009E"/>
<stop offset="1" stop-color="#7D009E"/>
</linearGradient>
<linearGradient id="paint32_linear_32_3240" x1="468.569" y1="222.617" x2="470.931" y2="242.363" gradientUnits="userSpaceOnUse">
<stop stop-color="#FFDB44"/>
<stop offset="1" stop-color="#F100F7"/>
</linearGradient>
<linearGradient id="paint33_linear_32_3240" x1="468.569" y1="238.716" x2="470.931" y2="218.97" gradientUnits="userSpaceOnUse">
<stop stop-color="#FFDB44"/>
<stop offset="1" stop-color="#F100F7"/>
</linearGradient>
<linearGradient id="paint34_linear_32_3240" x1="429.696" y1="231.869" x2="506.087" y2="231.869" gradientUnits="userSpaceOnUse">
<stop stop-color="#FF9F14"/>
<stop offset="1" stop-color="#FF0DD9"/>
</linearGradient>
<linearGradient id="paint35_linear_32_3240" x1="386.991" y1="227.927" x2="513.469" y2="227.927" gradientUnits="userSpaceOnUse">
<stop stop-color="#B100A7"/>
<stop offset="0.0566727" stop-color="#A700A5"/>
<stop offset="0.2002" stop-color="#9400A2"/>
<stop offset="0.3686" stop-color="#8700A0"/>
<stop offset="0.5831" stop-color="#7F009E"/>
<stop offset="1" stop-color="#7D009E"/>
</linearGradient>
<linearGradient id="paint36_linear_32_3240" x1="449.266" y1="208.648" x2="451.628" y2="228.394" gradientUnits="userSpaceOnUse">
<stop stop-color="#FFDB44"/>
<stop offset="1" stop-color="#F100F7"/>
</linearGradient>
<linearGradient id="paint37_linear_32_3240" x1="449.266" y1="224.748" x2="451.628" y2="205.001" gradientUnits="userSpaceOnUse">
<stop stop-color="#FFDB44"/>
<stop offset="1" stop-color="#F100F7"/>
</linearGradient>
<linearGradient id="paint38_linear_32_3240" x1="410.393" y1="217.9" x2="486.784" y2="217.9" gradientUnits="userSpaceOnUse">
<stop stop-color="#FF9F14"/>
<stop offset="1" stop-color="#FF0DD9"/>
</linearGradient>
<linearGradient id="paint39_linear_32_3240" x1="398.866" y1="211.462" x2="525.344" y2="211.462" gradientUnits="userSpaceOnUse">
<stop stop-color="#B100A7"/>
<stop offset="0.0566727" stop-color="#A700A5"/>
<stop offset="0.2002" stop-color="#9400A2"/>
<stop offset="0.3686" stop-color="#8700A0"/>
<stop offset="0.5831" stop-color="#7F009E"/>
<stop offset="1" stop-color="#7D009E"/>
</linearGradient>
<linearGradient id="paint40_linear_32_3240" x1="461.142" y1="192.183" x2="463.504" y2="211.929" gradientUnits="userSpaceOnUse">
<stop stop-color="#FFDB44"/>
<stop offset="1" stop-color="#F100F7"/>
</linearGradient>
<linearGradient id="paint41_linear_32_3240" x1="461.142" y1="208.282" x2="463.504" y2="188.536" gradientUnits="userSpaceOnUse">
<stop stop-color="#FFDB44"/>
<stop offset="1" stop-color="#F100F7"/>
</linearGradient>
<linearGradient id="paint42_linear_32_3240" x1="422.268" y1="201.435" x2="498.659" y2="201.435" gradientUnits="userSpaceOnUse">
<stop stop-color="#FF9F14"/>
<stop offset="1" stop-color="#FF0DD9"/>
</linearGradient>
<linearGradient id="paint43_linear_32_3240" x1="384.178" y1="195.84" x2="510.656" y2="195.84" gradientUnits="userSpaceOnUse">
<stop stop-color="#B100A7"/>
<stop offset="0.0566727" stop-color="#A700A5"/>
<stop offset="0.2002" stop-color="#9400A2"/>
<stop offset="0.3686" stop-color="#8700A0"/>
<stop offset="0.5831" stop-color="#7F009E"/>
<stop offset="1" stop-color="#7D009E"/>
</linearGradient>
<linearGradient id="paint44_linear_32_3240" x1="446.453" y1="176.561" x2="448.815" y2="196.308" gradientUnits="userSpaceOnUse">
<stop stop-color="#FFDB44"/>
<stop offset="1" stop-color="#F100F7"/>
</linearGradient>
<linearGradient id="paint45_linear_32_3240" x1="446.453" y1="192.661" x2="448.815" y2="172.914" gradientUnits="userSpaceOnUse">
<stop stop-color="#FFDB44"/>
<stop offset="1" stop-color="#F100F7"/>
</linearGradient>
<linearGradient id="paint46_linear_32_3240" x1="407.58" y1="185.814" x2="483.971" y2="185.814" gradientUnits="userSpaceOnUse">
<stop stop-color="#FF9F14"/>
<stop offset="1" stop-color="#FF0DD9"/>
</linearGradient>
<linearGradient id="paint47_linear_32_3240" x1="437.079" y1="112.326" x2="370.415" y2="133.693" gradientUnits="userSpaceOnUse">
<stop stop-color="#B100A7"/>
<stop offset="0.0566727" stop-color="#A700A5"/>
<stop offset="0.2002" stop-color="#9400A2"/>
<stop offset="0.3686" stop-color="#8700A0"/>
<stop offset="0.5831" stop-color="#7F009E"/>
<stop offset="1" stop-color="#7D009E"/>
</linearGradient>
<linearGradient id="paint48_linear_32_3240" x1="490.994" y1="45.8987" x2="431.368" y2="177.277" gradientUnits="userSpaceOnUse">
<stop stop-color="#FF981D"/>
<stop offset="1" stop-color="#F100F7"/>
</linearGradient>
<linearGradient id="paint49_linear_32_3240" x1="466.876" y1="68.8488" x2="465.066" y2="132.992" gradientUnits="userSpaceOnUse">
<stop stop-color="#FF9F14"/>
<stop offset="1" stop-color="#FF0DD9"/>
</linearGradient>
</defs>
</svg>
