<svg width="48" height="48" viewBox="0 0 48 48" fill="none" xmlns="http://www.w3.org/2000/svg">
<circle cx="24" cy="24" r="23" stroke="url(#paint0_radial_20_4035)" stroke-width="2"/>
<path d="M28.6636 17.3778C28.6636 16.578 29.2666 15.9321 30.0135 15.9321L28.6636 17.3778ZM28.6636 17.3778C28.6636 18.1776 29.2666 18.8235 30.0135 18.8235M28.6636 17.3778L30.0135 18.8235M30.0135 18.8235C30.7603 18.8235 31.3634 18.1806 31.3634 17.3778L30.0135 18.8235ZM30.0135 16.9321L30.0148 16.9321C30.0507 16.932 30.0881 16.9394 30.1254 16.956C30.163 16.9726 30.2017 16.9991 30.2376 17.0374C30.2735 17.0759 30.3054 17.1253 30.3282 17.1844C30.351 17.2436 30.3635 17.3091 30.3634 17.3766V17.3778C30.3634 17.6927 30.1458 17.8235 30.0135 17.8235C29.8824 17.8235 29.6636 17.691 29.6636 17.3778C29.6636 17.0645 29.8824 16.9321 30.0135 16.9321ZM34.1915 18.8838L34.1915 18.8838L34.1918 18.8911C34.267 20.3224 34.2656 21.7446 34.2641 23.207C34.2639 23.4101 34.2637 23.614 34.2637 23.8187C34.2637 24.0486 34.264 24.2772 34.2643 24.5048C34.2663 25.9421 34.2682 27.3386 34.1919 28.7447L34.1919 28.7447L34.1915 28.7536C34.1091 30.5743 33.7318 32.0075 32.6418 33.1749C31.5663 34.3268 30.2597 34.7193 28.5977 34.8055L28.5977 34.8055L28.5893 34.806C27.2589 34.8861 25.937 34.8846 24.5709 34.8831C24.3814 34.8829 24.1909 34.8826 23.9995 34.8826C23.8084 34.8826 23.6183 34.8829 23.429 34.8831C22.0648 34.8846 20.7425 34.8861 19.4095 34.806L19.4095 34.8059L19.4013 34.8055C17.7388 34.7193 16.4353 34.3296 15.3571 33.1749C14.2697 32.0103 13.8898 30.5739 13.8075 28.7536L13.8071 28.7464C13.7319 27.3149 13.7333 25.8903 13.7348 24.4293C13.735 24.2265 13.7352 24.023 13.7352 23.8187C13.7352 23.6144 13.735 23.4109 13.7348 23.2082C13.7333 21.7477 13.7319 20.3251 13.8071 18.891L13.8071 18.891L13.8075 18.8838C13.8898 17.0631 14.2671 15.6299 15.3571 14.4625C16.4327 13.3106 17.7392 12.9182 19.4013 12.8319L19.4013 12.832L19.4096 12.8315C20.74 12.7513 22.0619 12.7528 23.4279 12.7544C23.6175 12.7546 23.808 12.7548 23.9995 12.7548C24.1905 12.7548 24.3807 12.7546 24.57 12.7544C25.9342 12.7528 27.2564 12.7513 28.5894 12.8315L28.5894 12.8315L28.5977 12.8319C30.2602 12.9182 31.5637 13.3078 32.6418 14.4625C33.7292 15.6271 34.1092 17.0636 34.1915 18.8838ZM33.7202 31.2865L33.7213 31.2836C34.0812 30.3136 34.1925 28.8138 34.2324 27.4715C34.2622 26.4706 34.2529 25.4441 34.2456 24.6332C34.2428 24.3265 34.2403 24.0507 34.2403 23.8187C34.2403 23.5861 34.2428 23.3092 34.2456 23.0012C34.253 22.1906 34.2623 21.1648 34.2328 20.1647C34.1932 18.8218 34.0826 17.3218 33.7247 16.3523L33.723 16.348C33.4734 15.6814 33.1576 15.1603 32.6676 14.6352C32.177 14.1063 31.6781 13.7604 31.0394 13.486L31.0347 13.484C30.0988 13.0876 28.6669 12.9694 27.4147 12.927C26.4764 12.8953 25.511 12.9053 24.7533 12.9132C24.4673 12.9162 24.2108 12.9189 23.9967 12.9189C23.7825 12.9189 23.526 12.9162 23.24 12.9132C22.4823 12.9053 21.5169 12.8953 20.5786 12.927C19.3264 12.9694 17.8945 13.0876 16.9586 13.484L16.9586 13.484L16.9539 13.486C16.31 13.7626 15.8171 14.1126 15.3294 14.6313C14.8352 15.1568 14.5193 15.683 14.2703 16.348L14.2703 16.348L14.2687 16.3523C13.9107 17.3218 13.8001 18.8218 13.7605 20.1647C13.731 21.1648 13.7403 22.1906 13.7477 23.0013C13.7505 23.3092 13.753 23.5861 13.753 23.8187C13.753 24.0514 13.7505 24.3282 13.7477 24.6361C13.7403 25.4465 13.731 26.4718 13.7605 27.4716C13.8001 28.8145 13.9108 30.314 14.2684 31.2845L14.2703 31.2895C14.52 31.9561 14.8358 32.4773 15.3259 33.0025C15.8164 33.5312 16.3153 33.8771 16.9539 34.1514L16.9586 34.1534C17.8945 34.5498 19.3264 34.6681 20.5786 34.7104C21.5169 34.7422 22.4823 34.7321 23.24 34.7242C23.526 34.7212 23.7825 34.7186 23.9967 34.7186C24.2102 34.7186 24.4657 34.7212 24.7505 34.7242C25.5085 34.7321 26.4746 34.7421 27.4137 34.71C28.6653 34.6673 30.0971 34.5482 31.0335 34.1498L31.0366 34.1484C31.6775 33.8731 32.1719 33.5269 32.6625 33.0017C33.1559 32.4767 33.4714 31.9508 33.7202 31.2865ZM31.9355 15.3163C32.3328 15.7419 32.5808 16.1494 32.7866 16.6987L17.3486 14.4048C18.6228 13.8652 21.4047 13.8942 23.2043 13.913C23.4983 13.9161 23.766 13.9189 23.9967 13.9189C24.2273 13.9189 24.495 13.9161 24.789 13.913C26.5886 13.8942 29.3705 13.8652 30.6447 14.4048C31.1576 14.6252 31.5409 14.8908 31.9355 15.3163ZM19.2166 23.8187C19.2166 20.8796 21.4138 18.6283 23.9967 18.6283C26.5795 18.6283 28.7767 20.8796 28.7767 23.8187C28.7767 26.7578 26.5795 29.0091 23.9967 29.0091C21.4138 29.0091 19.2166 26.7578 19.2166 23.8187ZM19.24 23.8187C19.24 26.5207 21.3123 28.842 23.9967 28.842C26.681 28.842 28.7533 26.5207 28.7533 23.8187C28.7533 21.1167 26.681 18.7954 23.9967 18.7954C21.3123 18.7954 19.24 21.1167 19.24 23.8187Z" fill="#C49FCC" stroke="url(#paint1_radial_20_4035)" stroke-width="2"/>
<defs>
<radialGradient id="paint0_radial_20_4035" cx="0" cy="0" r="1" gradientUnits="userSpaceOnUse" gradientTransform="translate(60.2643 83) rotate(-128.567) scale(122.782 137.07)">
<stop offset="0.244792" stop-color="#E250E5"/>
<stop offset="1" stop-color="#4B50E6"/>
</radialGradient>
<radialGradient id="paint1_radial_20_4035" cx="0" cy="0" r="1" gradientUnits="userSpaceOnUse" gradientTransform="translate(41.0217 53.478) rotate(-126.668) scale(60.1657 66.0034)">
<stop offset="0.244792" stop-color="#E250E5"/>
<stop offset="1" stop-color="#4B50E6"/>
</radialGradient>
</defs>
</svg>
